<svg version="1.1" xmlns="http://www.w3.org/2000/svg" viewBox="0 0 1570.0538940429688 924.6035308837891" width="3140.1077880859375" height="1849.2070617675781">
  <!-- svg-source:excalidraw -->
  
  <defs>
    <style class="style-fonts">
      @font-face {
        font-family: "Virgil";
        src: url("https://excalidraw.com/Virgil.woff2");
      }
      @font-face {
        font-family: "Cascadia";
        src: url("https://excalidraw.com/Cascadia.woff2");
      }
    </style>
    
  </defs>
  <rect x="0" y="0" width="1570.0538940429688" height="924.6035308837891" fill="#ffffff"></rect><g stroke-linecap="round" transform="translate(351.9458465576172 10) rotate(0 555.8557434082031 38.28828430175781)"><path d="M2.61 7.57 C2.61 7.57, 2.61 7.57, 2.61 7.57 M2.61 7.57 C2.61 7.57, 2.61 7.57, 2.61 7.57 M3.66 12.46 C5.11 10.79, 6.56 9.13, 10.22 4.91 M3.66 12.46 C5.49 10.36, 7.31 8.26, 10.22 4.91 M2.09 20.37 C7.25 14.42, 12.42 8.48, 19.8 -0.01 M2.09 20.37 C6.1 15.75, 10.12 11.13, 19.8 -0.01 M1.83 26.76 C9.11 18.39, 16.39 10.01, 24.79 0.35 M1.83 26.76 C7.51 20.23, 13.19 13.69, 24.79 0.35 M1.57 33.16 C11.3 21.96, 21.04 10.76, 30.43 -0.05 M1.57 33.16 C10.79 22.55, 20.01 11.94, 30.43 -0.05 M1.96 38.8 C10.02 29.53, 18.08 20.26, 35.42 0.31 M1.96 38.8 C15.31 23.45, 28.66 8.09, 35.42 0.31 M1.7 45.2 C13.88 31.19, 26.07 17.17, 40.41 0.67 M1.7 45.2 C12.09 33.25, 22.47 21.31, 40.41 0.67 M2.09 50.85 C19.44 30.89, 36.78 10.94, 46.05 0.28 M2.09 50.85 C19.08 31.31, 36.07 11.77, 46.05 0.28 M1.18 58 C11.86 45.71, 22.54 33.43, 51.04 0.64 M1.18 58 C18.08 38.56, 34.98 19.11, 51.04 0.64 M1.57 63.64 C21.19 41.07, 40.81 18.5, 56.68 0.25 M1.57 63.64 C17.45 45.38, 33.32 27.12, 56.68 0.25 M3.28 67.77 C15 54.29, 26.73 40.8, 61.67 0.61 M3.28 67.77 C16.27 52.83, 29.26 37.88, 61.67 0.61 M4.98 71.91 C22.3 51.99, 39.62 32.06, 67.31 0.21 M4.98 71.91 C17.92 57.03, 30.85 42.15, 67.31 0.21 M8.66 73.78 C22.33 58.05, 36.01 42.32, 72.3 0.57 M8.66 73.78 C23.61 56.58, 38.56 39.38, 72.3 0.57 M11.68 76.4 C30.76 54.46, 49.83 32.51, 77.94 0.18 M11.68 76.4 C29.78 55.57, 47.89 34.75, 77.94 0.18 M16.67 76.76 C41.29 48.44, 65.91 20.11, 82.93 0.54 M16.67 76.76 C37.69 52.57, 58.72 28.38, 82.93 0.54 M21 77.88 C40.52 55.42, 60.04 32.97, 88.57 0.14 M21 77.88 C37.13 59.32, 53.27 40.75, 88.57 0.14 M25.98 78.24 C50.39 50.16, 74.8 22.08, 93.56 0.5 M25.98 78.24 C41.91 59.92, 57.83 41.6, 93.56 0.5 M31.63 77.84 C55.85 49.98, 80.07 22.11, 99.2 0.11 M31.63 77.84 C50.73 55.87, 69.83 33.9, 99.2 0.11 M36.61 78.2 C53.44 58.85, 70.26 39.49, 104.19 0.47 M36.61 78.2 C62.36 48.59, 88.1 18.98, 104.19 0.47 M42.26 77.81 C65.87 50.64, 89.48 23.48, 109.83 0.07 M42.26 77.81 C56.34 61.61, 70.41 45.42, 109.83 0.07 M47.24 78.17 C65.83 56.78, 84.42 35.4, 114.82 0.43 M47.24 78.17 C72.19 49.47, 97.14 20.77, 114.82 0.43 M52.89 77.77 C72.45 55.27, 92.02 32.76, 120.46 0.04 M52.89 77.77 C69.4 58.77, 85.92 39.77, 120.46 0.04 M57.87 78.13 C75.09 58.32, 92.32 38.51, 125.45 0.4 M57.87 78.13 C74.19 59.36, 90.51 40.59, 125.45 0.4 M63.52 77.74 C89.3 48.08, 115.08 18.43, 131.09 0 M63.52 77.74 C80.03 58.74, 96.54 39.75, 131.09 0 M68.5 78.1 C94.08 48.68, 119.65 19.26, 136.08 0.36 M68.5 78.1 C86.32 57.6, 104.14 37.1, 136.08 0.36 M74.15 77.7 C87.87 61.92, 101.59 46.14, 141.72 -0.03 M74.15 77.7 C93.52 55.42, 112.89 33.13, 141.72 -0.03 M79.13 78.06 C93.4 61.66, 107.66 45.25, 146.71 0.33 M79.13 78.06 C101.23 52.65, 123.33 27.23, 146.71 0.33 M84.12 78.42 C104.86 54.57, 125.59 30.71, 151.69 0.69 M84.12 78.42 C102.7 57.05, 121.27 35.68, 151.69 0.69 M89.76 78.03 C109.57 55.25, 129.37 32.47, 157.34 0.3 M89.76 78.03 C113.23 51.03, 136.7 24.03, 157.34 0.3 M94.75 78.39 C109.67 61.23, 124.59 44.07, 162.32 0.66 M94.75 78.39 C117.56 52.15, 140.37 25.91, 162.32 0.66 M100.39 78 C123.34 51.6, 146.29 25.2, 167.97 0.26 M100.39 78 C118.35 57.34, 136.3 36.69, 167.97 0.26 M105.38 78.36 C122.1 59.12, 138.82 39.88, 172.95 0.62 M105.38 78.36 C120.8 60.62, 136.22 42.88, 172.95 0.62 M111.02 77.96 C127.3 59.24, 143.58 40.51, 178.6 0.23 M111.02 77.96 C127.79 58.67, 144.56 39.39, 178.6 0.23 M116.01 78.32 C133.9 57.75, 151.78 37.17, 183.58 0.59 M116.01 78.32 C137.99 53.04, 159.96 27.76, 183.58 0.59 M121.65 77.93 C139.37 57.55, 157.09 37.17, 189.23 0.19 M121.65 77.93 C140.96 55.72, 160.26 33.52, 189.23 0.19 M126.64 78.29 C148.61 53.01, 170.58 27.74, 194.21 0.55 M126.64 78.29 C142.33 60.24, 158.02 42.19, 194.21 0.55 M132.28 77.89 C148.75 58.95, 165.22 40, 199.86 0.16 M132.28 77.89 C158.93 47.25, 185.57 16.6, 199.86 0.16 M137.27 78.25 C154.61 58.31, 171.95 38.36, 204.85 0.52 M137.27 78.25 C162.79 48.89, 188.31 19.53, 204.85 0.52 M142.91 77.86 C156.48 62.25, 170.05 46.64, 210.49 0.12 M142.91 77.86 C157.44 61.15, 171.97 44.43, 210.49 0.12 M147.9 78.22 C165.59 57.87, 183.28 37.52, 215.48 0.48 M147.9 78.22 C162.44 61.49, 176.98 44.76, 215.48 0.48 M153.54 77.82 C175.41 52.67, 197.27 27.53, 221.12 0.09 M153.54 77.82 C168 61.2, 182.45 44.58, 221.12 0.09 M158.53 78.18 C180.05 53.43, 201.56 28.68, 226.11 0.45 M158.53 78.18 C173.61 60.83, 188.69 43.49, 226.11 0.45 M164.17 77.79 C189.66 48.47, 215.16 19.14, 231.75 0.05 M164.17 77.79 C183.22 55.88, 202.27 33.97, 231.75 0.05 M169.16 78.15 C194.79 48.67, 220.41 19.19, 236.74 0.41 M169.16 78.15 C189.79 54.42, 210.41 30.7, 236.74 0.41 M174.8 77.75 C195.22 54.27, 215.63 30.78, 242.38 0.02 M174.8 77.75 C197.44 51.71, 220.08 25.67, 242.38 0.02 M179.79 78.11 C204.93 49.2, 230.07 20.28, 247.37 0.38 M179.79 78.11 C206.13 47.81, 232.47 17.51, 247.37 0.38 M185.43 77.72 C199.86 61.13, 214.28 44.54, 253.01 -0.02 M185.43 77.72 C206.68 53.28, 227.92 28.84, 253.01 -0.02 M190.42 78.08 C217.41 47.03, 244.4 15.98, 258 0.34 M190.42 78.08 C205.99 60.17, 221.56 42.26, 258 0.34 M196.06 77.69 C209.67 62.03, 223.28 46.38, 263.64 -0.05 M196.06 77.69 C222.14 47.68, 248.22 17.68, 263.64 -0.05 M201.05 78.05 C223.97 51.68, 246.9 25.31, 268.63 0.31 M201.05 78.05 C214.95 62.06, 228.84 46.08, 268.63 0.31 M206.04 78.41 C228.42 52.66, 250.8 26.91, 273.61 0.67 M206.04 78.41 C229.06 51.92, 252.08 25.44, 273.61 0.67 M211.68 78.01 C228.18 59.03, 244.68 40.05, 279.26 0.28 M211.68 78.01 C233.23 53.22, 254.79 28.43, 279.26 0.28 M216.67 78.37 C233.1 59.47, 249.54 40.56, 284.24 0.64 M216.67 78.37 C243.34 47.69, 270.01 17.01, 284.24 0.64 M222.31 77.98 C245.42 51.39, 268.53 24.81, 289.89 0.24 M222.31 77.98 C249.26 46.97, 276.22 15.97, 289.89 0.24 M227.3 78.34 C251.12 50.93, 274.94 23.53, 294.87 0.6 M227.3 78.34 C253.58 48.1, 279.86 17.87, 294.87 0.6 M232.94 77.94 C248.85 59.64, 264.75 41.35, 300.52 0.21 M232.94 77.94 C253.14 54.71, 273.34 31.47, 300.52 0.21 M237.93 78.3 C254.79 58.91, 271.64 39.52, 305.5 0.57 M237.93 78.3 C264.24 48.03, 290.55 17.76, 305.5 0.57 M243.57 77.91 C263.99 54.42, 284.4 30.93, 311.15 0.17 M243.57 77.91 C263.68 54.78, 283.79 31.65, 311.15 0.17 M248.56 78.27 C268.78 55.01, 289 31.75, 316.13 0.53 M248.56 78.27 C267.96 55.95, 287.36 33.63, 316.13 0.53 M254.2 77.87 C274.13 54.95, 294.06 32.02, 321.78 0.14 M254.2 77.87 C274.37 54.68, 294.53 31.48, 321.78 0.14 M259.19 78.23 C275.54 59.42, 291.9 40.61, 326.76 0.5 M259.19 78.23 C286.1 47.28, 313 16.33, 326.76 0.5 M264.83 77.84 C287.91 51.29, 310.99 24.74, 332.41 0.1 M264.83 77.84 C280.37 59.97, 295.9 42.1, 332.41 0.1 M269.82 78.2 C296.38 47.64, 322.95 17.08, 337.39 0.46 M269.82 78.2 C287.63 57.71, 305.43 37.23, 337.39 0.46 M275.46 77.8 C298.76 51.01, 322.05 24.21, 343.04 0.07 M275.46 77.8 C292.06 58.71, 308.65 39.62, 343.04 0.07 M280.45 78.16 C296.85 59.29, 313.26 40.42, 348.02 0.43 M280.45 78.16 C297.29 58.79, 314.12 39.43, 348.02 0.43 M286.09 77.77 C311.91 48.06, 337.74 18.36, 353.67 0.03 M286.09 77.77 C307.98 52.59, 329.88 27.4, 353.67 0.03 M291.08 78.13 C308.39 58.22, 325.7 38.3, 358.65 0.39 M291.08 78.13 C314.47 51.22, 337.86 24.31, 358.65 0.39 M296.72 77.73 C317.44 53.9, 338.15 30.07, 364.3 0 M296.72 77.73 C314.87 56.86, 333.02 35.98, 364.3 0 M301.71 78.1 C320.19 56.83, 338.68 35.57, 369.28 0.36 M301.71 78.1 C326.75 49.29, 351.78 20.49, 369.28 0.36 M307.35 77.7 C330.72 50.82, 354.08 23.95, 374.93 -0.03 M307.35 77.7 C328.16 53.77, 348.96 29.83, 374.93 -0.03 M312.34 78.06 C333.3 53.95, 354.26 29.84, 379.91 0.33 M312.34 78.06 C336.88 49.83, 361.43 21.59, 379.91 0.33 M317.33 78.42 C337.76 54.92, 358.19 31.41, 384.9 0.69 M317.33 78.42 C337.29 55.45, 357.26 32.48, 384.9 0.69 M322.97 78.03 C347.04 50.33, 371.12 22.64, 390.54 0.29 M322.97 78.03 C349.34 47.69, 375.72 17.34, 390.54 0.29 M327.96 78.39 C351.89 50.85, 375.83 23.31, 395.53 0.65 M327.96 78.39 C348.89 54.3, 369.83 30.22, 395.53 0.65 M333.6 77.99 C359.08 48.68, 384.56 19.37, 401.17 0.26 M333.6 77.99 C356.76 51.34, 379.93 24.7, 401.17 0.26 M338.59 78.35 C355.75 58.61, 372.92 38.86, 406.16 0.62 M338.59 78.35 C355.78 58.57, 372.98 38.79, 406.16 0.62 M344.23 77.96 C365.37 53.64, 386.5 29.33, 411.8 0.22 M344.23 77.96 C366.98 51.78, 389.73 25.61, 411.8 0.22 M349.22 78.32 C371.48 52.7, 393.75 27.09, 416.79 0.58 M349.22 78.32 C366.64 58.27, 384.07 38.22, 416.79 0.58 M354.86 77.92 C373.69 56.26, 392.52 34.59, 422.43 0.19 M354.86 77.92 C376.01 53.59, 397.16 29.26, 422.43 0.19 M359.85 78.28 C379 56.25, 398.14 34.23, 427.42 0.55 M359.85 78.28 C378.34 57.01, 396.83 35.74, 427.42 0.55 M365.49 77.89 C390.15 49.52, 414.82 21.14, 433.06 0.15 M365.49 77.89 C381.56 59.4, 397.63 40.92, 433.06 0.15 M370.48 78.25 C397.06 47.67, 423.65 17.08, 438.05 0.51 M370.48 78.25 C389.41 56.47, 408.34 34.69, 438.05 0.51 M376.12 77.85 C392.13 59.44, 408.14 41.02, 443.69 0.12 M376.12 77.85 C396.53 54.38, 416.94 30.9, 443.69 0.12 M381.11 78.21 C402.21 53.94, 423.32 29.66, 448.68 0.48 M381.11 78.21 C400.1 56.36, 419.1 34.51, 448.68 0.48 M386.75 77.82 C409.37 51.8, 431.99 25.78, 454.32 0.08 M386.75 77.82 C408.49 52.81, 430.23 27.8, 454.32 0.08 M391.74 78.18 C409.84 57.36, 427.94 36.54, 459.31 0.44 M391.74 78.18 C412.34 54.48, 432.94 30.78, 459.31 0.44 M397.38 77.78 C415.87 56.51, 434.37 35.24, 464.95 0.05 M397.38 77.78 C420.21 51.52, 443.05 25.25, 464.95 0.05 M402.37 78.14 C420.12 57.72, 437.87 37.3, 469.94 0.41 M402.37 78.14 C416.22 62.21, 430.07 46.28, 469.94 0.41 M408.01 77.75 C424.49 58.79, 440.98 39.83, 475.58 0.02 M408.01 77.75 C422.65 60.91, 437.29 44.07, 475.58 0.02 M413 78.11 C431.56 56.76, 450.12 35.41, 480.57 0.38 M413 78.11 C430.57 57.9, 448.14 37.69, 480.57 0.38 M418.64 77.72 C432.88 61.33, 447.13 44.95, 486.21 -0.02 M418.64 77.72 C435.46 58.37, 452.27 39.03, 486.21 -0.02 M423.63 78.08 C440.96 58.14, 458.29 38.2, 491.2 0.34 M423.63 78.08 C448.86 49.05, 474.1 20.02, 491.2 0.34 M429.27 77.68 C450.52 53.24, 471.76 28.8, 496.84 -0.05 M429.27 77.68 C452.96 50.43, 476.65 23.17, 496.84 -0.05 M434.26 78.04 C456.95 51.94, 479.64 25.84, 501.83 0.31 M434.26 78.04 C452.76 56.76, 471.26 35.48, 501.83 0.31 M439.24 78.4 C457.5 57.4, 475.75 36.41, 506.82 0.67 M439.24 78.4 C457.01 57.96, 474.78 37.53, 506.82 0.67 M444.89 78.01 C459.44 61.26, 474 44.52, 512.46 0.27 M444.89 78.01 C466.14 53.55, 487.4 29.1, 512.46 0.27 M449.87 78.37 C474.75 49.75, 499.62 21.14, 517.45 0.63 M449.87 78.37 C473.65 51.02, 497.42 23.67, 517.45 0.63 M455.52 77.97 C480.73 48.97, 505.93 19.98, 523.09 0.24 M455.52 77.97 C474.05 56.65, 492.59 35.33, 523.09 0.24 M460.5 78.33 C478.99 57.07, 497.48 35.8, 528.08 0.6 M460.5 78.33 C474.58 62.14, 488.65 45.95, 528.08 0.6 M466.15 77.94 C483.81 57.62, 501.48 37.29, 533.72 0.2 M466.15 77.94 C490.24 50.23, 514.33 22.51, 533.72 0.2 M471.13 78.3 C486.46 60.67, 501.79 43.04, 538.71 0.56 M471.13 78.3 C487.92 58.99, 504.7 39.69, 538.71 0.56 M476.78 77.9 C497.61 53.94, 518.45 29.97, 544.35 0.17 M476.78 77.9 C503.11 47.61, 529.44 17.32, 544.35 0.17 M481.76 78.26 C498.19 59.37, 514.61 40.48, 549.34 0.53 M481.76 78.26 C502.92 53.93, 524.07 29.6, 549.34 0.53 M487.41 77.87 C508.79 53.27, 530.17 28.67, 554.98 0.13 M487.41 77.87 C502.77 60.19, 518.14 42.52, 554.98 0.13 M492.39 78.23 C513.51 53.94, 534.62 29.65, 559.97 0.49 M492.39 78.23 C510.53 57.37, 528.66 36.51, 559.97 0.49 M498.04 77.83 C515.84 57.35, 533.65 36.87, 565.61 0.1 M498.04 77.83 C521.56 50.78, 545.08 23.72, 565.61 0.1 M503.02 78.19 C516.56 62.62, 530.1 47.05, 570.6 0.46 M503.02 78.19 C516.9 62.24, 530.77 46.28, 570.6 0.46 M508.67 77.8 C529.09 54.3, 549.52 30.81, 576.24 0.06 M508.67 77.8 C525.92 57.96, 543.17 38.11, 576.24 0.06 M513.66 78.16 C530.34 58.97, 547.02 39.77, 581.23 0.42 M513.66 78.16 C529.87 59.51, 546.08 40.86, 581.23 0.42 M519.3 77.77 C543.65 49.75, 568.01 21.73, 586.87 0.03 M519.3 77.77 C538.05 56.19, 556.81 34.61, 586.87 0.03 M524.29 78.13 C549.11 49.57, 573.94 21.01, 591.86 0.39 M524.29 78.13 C545.45 53.78, 566.61 29.43, 591.86 0.39 M529.93 77.73 C552.96 51.24, 575.99 24.75, 597.5 0 M529.93 77.73 C554.82 49.09, 579.71 20.46, 597.5 0 M534.92 78.09 C551.95 58.5, 568.98 38.91, 602.49 0.36 M534.92 78.09 C561.35 47.68, 587.78 17.27, 602.49 0.36 M540.56 77.7 C562.25 52.74, 583.95 27.79, 608.13 -0.04 M540.56 77.7 C561.26 53.89, 581.95 30.08, 608.13 -0.04 M545.55 78.06 C570.28 49.6, 595.02 21.14, 613.12 0.32 M545.55 78.06 C563.45 57.46, 581.35 36.87, 613.12 0.32 M550.53 78.42 C574.45 50.91, 598.36 23.39, 618.11 0.68 M550.53 78.42 C570.45 55.5, 590.37 32.58, 618.11 0.68 M556.18 78.02 C579.81 50.84, 603.44 23.65, 623.75 0.29 M556.18 78.02 C579.85 50.79, 603.52 23.56, 623.75 0.29 M561.16 78.38 C579.21 57.62, 597.27 36.85, 628.74 0.65 M561.16 78.38 C585.65 50.21, 610.14 22.04, 628.74 0.65 M566.81 77.99 C581.55 61.02, 596.3 44.06, 634.38 0.25 M566.81 77.99 C586.3 55.56, 605.8 33.14, 634.38 0.25 M571.79 78.35 C589.6 57.87, 607.4 37.38, 639.37 0.61 M571.79 78.35 C596.3 50.16, 620.8 21.97, 639.37 0.61 M577.44 77.95 C601.89 49.83, 626.34 21.7, 645.01 0.22 M577.44 77.95 C600.78 51.1, 624.12 24.25, 645.01 0.22 M582.42 78.31 C604.09 53.39, 625.76 28.46, 650 0.58 M582.42 78.31 C607.7 49.24, 632.97 20.17, 650 0.58 M588.07 77.92 C611.43 51.04, 634.8 24.16, 655.64 0.18 M588.07 77.92 C602.4 61.43, 616.73 44.94, 655.64 0.18 M593.05 78.28 C619.5 47.85, 645.95 17.43, 660.63 0.54 M593.05 78.28 C613.33 54.96, 633.6 31.63, 660.63 0.54 M598.7 77.88 C619.66 53.77, 640.63 29.65, 666.27 0.15 M598.7 77.88 C612.52 61.98, 626.35 46.08, 666.27 0.15 M603.68 78.24 C617.43 62.43, 631.18 46.61, 671.26 0.51 M603.68 78.24 C621.88 57.32, 640.07 36.39, 671.26 0.51 M609.33 77.85 C634.36 49.05, 659.4 20.24, 676.9 0.11 M609.33 77.85 C627.16 57.34, 644.99 36.82, 676.9 0.11 M614.31 78.21 C631.85 58.03, 649.39 37.86, 681.89 0.47 M614.31 78.21 C630.2 59.93, 646.09 41.66, 681.89 0.47 M619.96 77.81 C634.61 60.96, 649.26 44.1, 687.53 0.08 M619.96 77.81 C644.01 50.14, 668.07 22.47, 687.53 0.08 M624.94 78.18 C640.98 59.72, 657.02 41.27, 692.52 0.44 M624.94 78.18 C650.36 48.93, 675.78 19.69, 692.52 0.44 M630.59 77.78 C651.83 53.34, 673.08 28.9, 698.16 0.05 M630.59 77.78 C648.96 56.64, 667.34 35.5, 698.16 0.05 M635.57 78.14 C661.91 47.84, 688.25 17.55, 703.15 0.41 M635.57 78.14 C655.57 55.13, 675.58 32.12, 703.15 0.41 M641.22 77.75 C661.73 54.15, 682.23 30.56, 708.79 0.01 M641.22 77.75 C656.6 60.04, 671.99 42.34, 708.79 0.01 M646.2 78.11 C669.47 51.34, 692.74 24.57, 713.78 0.37 M646.2 78.11 C661.27 60.77, 676.34 43.43, 713.78 0.37 M651.85 77.71 C678.83 46.67, 705.81 15.63, 719.42 -0.02 M651.85 77.71 C669.71 57.16, 687.58 36.61, 719.42 -0.02 M656.83 78.07 C677.37 54.45, 697.91 30.82, 724.41 0.34 M656.83 78.07 C671.08 61.69, 685.32 45.3, 724.41 0.34 M662.48 77.68 C688.71 47.49, 714.95 17.31, 729.39 0.7 M662.48 77.68 C679.07 58.59, 695.65 39.51, 729.39 0.7 M667.46 78.04 C684.1 58.9, 700.74 39.76, 735.04 0.3 M667.46 78.04 C690.29 51.77, 713.12 25.51, 735.04 0.3 M672.45 78.4 C689.14 59.19, 705.84 39.99, 740.02 0.66 M672.45 78.4 C690.65 57.46, 708.85 36.52, 740.02 0.66 M678.09 78 C699.98 52.82, 721.87 27.64, 745.67 0.27 M678.09 78 C698.88 54.09, 719.67 30.17, 745.67 0.27 M683.08 78.36 C703.65 54.7, 724.23 31.03, 750.65 0.63 M683.08 78.36 C699.61 59.34, 716.15 40.32, 750.65 0.63 M688.72 77.97 C706.62 57.38, 724.51 36.8, 756.3 0.23 M688.72 77.97 C705.53 58.63, 722.35 39.29, 756.3 0.23 M693.71 78.33 C712.6 56.6, 731.49 34.87, 761.28 0.59 M693.71 78.33 C714.99 53.85, 736.28 29.36, 761.28 0.59 M699.35 77.93 C724.47 49.04, 749.58 20.16, 766.93 0.2 M699.35 77.93 C720.62 53.47, 741.89 29.01, 766.93 0.2 M704.34 78.29 C722.08 57.89, 739.82 37.48, 771.91 0.56 M704.34 78.29 C720.98 59.16, 737.61 40.02, 771.91 0.56 M709.98 77.9 C731.75 52.86, 753.51 27.82, 777.56 0.16 M709.98 77.9 C729.17 55.82, 748.36 33.75, 777.56 0.16 M714.97 78.26 C736.5 53.49, 758.04 28.72, 782.54 0.52 M714.97 78.26 C730.47 60.43, 745.97 42.6, 782.54 0.52 M720.61 77.86 C745.54 49.19, 770.47 20.51, 788.19 0.13 M720.61 77.86 C744.95 49.87, 769.28 21.88, 788.19 0.13 M725.6 78.22 C745.07 55.83, 764.54 33.43, 793.17 0.49 M725.6 78.22 C744.55 56.42, 763.51 34.62, 793.17 0.49 M731.24 77.83 C754.21 51.41, 777.18 24.99, 798.82 0.1 M731.24 77.83 C756.35 48.95, 781.45 20.07, 798.82 0.1 M736.23 78.19 C762.33 48.17, 788.43 18.14, 803.8 0.46 M736.23 78.19 C752.49 59.48, 768.75 40.78, 803.8 0.46 M741.87 77.8 C757.94 59.32, 774 40.84, 809.45 0.06 M741.87 77.8 C767 48.89, 792.13 19.98, 809.45 0.06 M746.86 78.16 C760.59 62.36, 774.32 46.57, 814.44 0.42 M746.86 78.16 C772.25 48.94, 797.65 19.73, 814.44 0.42 M752.5 77.76 C768.73 59.1, 784.95 40.44, 820.08 0.03 M752.5 77.76 C768.69 59.14, 784.88 40.52, 820.08 0.03 M757.49 78.12 C778.05 54.47, 798.6 30.83, 825.07 0.39 M757.49 78.12 C782.96 48.82, 808.43 19.52, 825.07 0.39 M763.13 77.73 C783.39 54.42, 803.65 31.12, 830.71 -0.01 M763.13 77.73 C781.93 56.1, 800.73 34.48, 830.71 -0.01 M768.12 78.09 C783.63 60.24, 799.14 42.4, 835.7 0.35 M768.12 78.09 C792.46 50.09, 816.8 22.09, 835.7 0.35 M773.76 77.69 C797.05 50.91, 820.33 24.13, 841.34 -0.04 M773.76 77.69 C788.38 60.88, 802.99 44.07, 841.34 -0.04 M778.75 78.05 C798.65 55.17, 818.54 32.28, 846.33 0.32 M778.75 78.05 C796.75 57.34, 814.76 36.63, 846.33 0.32 M783.74 78.41 C802.46 56.87, 821.19 35.33, 851.31 0.68 M783.74 78.41 C797.74 62.3, 811.74 46.2, 851.31 0.68 M789.38 78.02 C815.67 47.77, 841.96 17.53, 856.96 0.28 M789.38 78.02 C807.07 57.67, 824.75 37.33, 856.96 0.28 M794.37 78.38 C819.72 49.21, 845.07 20.05, 861.94 0.64 M794.37 78.38 C809.89 60.53, 825.4 42.68, 861.94 0.64 M800.01 77.98 C825.6 48.54, 851.2 19.1, 867.59 0.25 M800.01 77.98 C822.79 51.77, 845.58 25.57, 867.59 0.25 M805 78.34 C824.7 55.68, 844.39 33.03, 872.57 0.61 M805 78.34 C824.39 56.03, 843.79 33.72, 872.57 0.61 M810.64 77.95 C831.16 54.35, 851.68 30.74, 878.22 0.21 M810.64 77.95 C831.5 53.96, 852.36 29.96, 878.22 0.21 M815.63 78.31 C832.78 58.58, 849.93 38.85, 883.2 0.57 M815.63 78.31 C829.68 62.15, 843.73 45.98, 883.2 0.57 M821.27 77.91 C846.88 48.45, 872.5 18.99, 888.85 0.18 M821.27 77.91 C835.95 61.02, 850.64 44.13, 888.85 0.18 M826.26 78.27 C844.15 57.69, 862.05 37.1, 893.83 0.54 M826.26 78.27 C842.87 59.17, 859.48 40.06, 893.83 0.54 M831.9 77.88 C858.6 47.16, 885.3 16.45, 899.48 0.14 M831.9 77.88 C854.14 52.3, 876.37 26.72, 899.48 0.14 M836.89 78.24 C857.32 54.74, 877.75 31.24, 904.46 0.5 M836.89 78.24 C855.75 56.54, 874.62 34.83, 904.46 0.5 M842.53 77.85 C863.97 53.19, 885.4 28.53, 910.11 0.11 M842.53 77.85 C865.17 51.81, 887.8 25.77, 910.11 0.11 M847.52 78.21 C869.08 53.41, 890.63 28.61, 915.09 0.47 M847.52 78.21 C861.82 61.76, 876.12 45.31, 915.09 0.47 M853.16 77.81 C872.45 55.62, 891.74 33.43, 920.74 0.08 M853.16 77.81 C876.88 50.52, 900.6 23.24, 920.74 0.08 M858.15 78.17 C874.54 59.31, 890.94 40.45, 925.72 0.44 M858.15 78.17 C883.26 49.29, 908.37 20.4, 925.72 0.44 M863.79 77.78 C878.33 61.05, 892.87 44.33, 931.37 0.04 M863.79 77.78 C885.3 53.04, 906.8 28.3, 931.37 0.04 M868.78 78.14 C894.18 48.91, 919.58 19.69, 936.35 0.4 M868.78 78.14 C889.9 53.84, 911.03 29.54, 936.35 0.4 M874.42 77.74 C901.21 46.92, 928 16.11, 942 0.01 M874.42 77.74 C888.12 61.98, 901.82 46.23, 942 0.01 M879.41 78.1 C906.21 47.27, 933.01 16.44, 946.98 0.37 M879.41 78.1 C893.82 61.53, 908.22 44.95, 946.98 0.37 M885.05 77.71 C904.96 54.8, 924.87 31.9, 952.63 -0.03 M885.05 77.71 C911.77 46.97, 938.48 16.24, 952.63 -0.03 M890.04 78.07 C914.19 50.29, 938.34 22.5, 957.61 0.33 M890.04 78.07 C908.75 56.54, 927.46 35.02, 957.61 0.33 M895.03 78.43 C918.68 51.22, 942.33 24.01, 962.6 0.69 M895.03 78.43 C916.12 54.16, 937.22 29.89, 962.6 0.69 M900.67 78.03 C920 55.8, 939.33 33.56, 968.24 0.3 M900.67 78.03 C923.12 52.21, 945.57 26.38, 968.24 0.3 M905.66 78.39 C931.18 49.03, 956.7 19.67, 973.23 0.66 M905.66 78.39 C932.3 47.74, 958.95 17.09, 973.23 0.66 M911.3 78 C937.34 48.04, 963.38 18.09, 978.87 0.26 M911.3 78 C927.02 59.91, 942.74 41.83, 978.87 0.26 M916.29 78.36 C941.15 49.75, 966.02 21.15, 983.86 0.62 M916.29 78.36 C937.08 54.44, 957.87 30.52, 983.86 0.62 M921.93 77.96 C937.67 59.86, 953.41 41.75, 989.5 0.23 M921.93 77.96 C939.28 58.01, 956.62 38.06, 989.5 0.23 M926.92 78.32 C946.25 56.09, 965.58 33.85, 994.49 0.59 M926.92 78.32 C950.12 51.63, 973.32 24.94, 994.49 0.59 M932.56 77.93 C958.35 48.26, 984.13 18.6, 1000.13 0.19 M932.56 77.93 C953.37 53.99, 974.17 30.06, 1000.13 0.19 M937.55 78.29 C955.94 57.13, 974.34 35.96, 1005.12 0.55 M937.55 78.29 C952.23 61.4, 966.91 44.51, 1005.12 0.55 M943.19 77.89 C967.45 49.98, 991.72 22.07, 1010.76 0.16 M943.19 77.89 C964.46 53.42, 985.74 28.95, 1010.76 0.16 M948.18 78.26 C964.51 59.47, 980.84 40.68, 1015.75 0.52 M948.18 78.26 C966.46 57.23, 984.73 36.2, 1015.75 0.52 M953.82 77.86 C971.94 57.02, 990.05 36.18, 1021.39 0.13 M953.82 77.86 C969.42 59.91, 985.02 41.96, 1021.39 0.13 M958.81 78.22 C978.04 56.09, 997.28 33.96, 1026.38 0.49 M958.81 78.22 C976.99 57.31, 995.17 36.39, 1026.38 0.49 M964.45 77.83 C990.56 47.79, 1016.67 17.76, 1032.02 0.09 M964.45 77.83 C980.31 59.58, 996.16 41.34, 1032.02 0.09 M969.44 78.19 C987.44 57.47, 1005.45 36.76, 1037.01 0.45 M969.44 78.19 C983.22 62.33, 997 46.48, 1037.01 0.45 M975.08 77.79 C999.86 49.29, 1024.63 20.79, 1042.65 0.06 M975.08 77.79 C997.36 52.17, 1019.63 26.54, 1042.65 0.06 M980.07 78.15 C995.42 60.49, 1010.77 42.83, 1047.64 0.42 M980.07 78.15 C999.74 55.52, 1019.42 32.88, 1047.64 0.42 M985.71 77.76 C1001.7 59.36, 1017.7 40.96, 1053.28 0.02 M985.71 77.76 C1008.98 50.99, 1032.25 24.22, 1053.28 0.02 M990.7 78.12 C1016.52 48.41, 1042.35 18.7, 1058.27 0.38 M990.7 78.12 C1015.82 49.22, 1040.94 20.32, 1058.27 0.38 M996.34 77.72 C1023.32 46.69, 1050.29 15.66, 1063.91 -0.01 M996.34 77.72 C1018.8 51.89, 1041.26 26.05, 1063.91 -0.01 M1001.33 78.08 C1023.06 53.08, 1044.8 28.08, 1068.9 0.35 M1001.33 78.08 C1022.39 53.85, 1043.46 29.61, 1068.9 0.35 M1006.97 77.69 C1022.64 59.66, 1038.31 41.63, 1074.54 -0.05 M1006.97 77.69 C1032.11 48.76, 1057.26 19.84, 1074.54 -0.05 M1011.96 78.05 C1026.2 61.66, 1040.45 45.28, 1079.53 0.31 M1011.96 78.05 C1025.62 62.34, 1039.27 46.62, 1079.53 0.31 M1016.94 78.41 C1036.38 56.05, 1055.81 33.7, 1084.52 0.67 M1016.94 78.41 C1041.75 49.87, 1066.56 21.33, 1084.52 0.67 M1022.59 78.01 C1048.93 47.71, 1075.28 17.4, 1090.16 0.28 M1022.59 78.01 C1046.84 50.11, 1071.09 22.21, 1090.16 0.28 M1027.57 78.37 C1047.24 55.75, 1066.91 33.13, 1094.49 1.39 M1027.57 78.37 C1044.03 59.44, 1060.49 40.51, 1094.49 1.39 M1033.22 77.98 C1057.76 49.74, 1082.31 21.51, 1098.82 2.51 M1033.22 77.98 C1054.42 53.59, 1075.62 29.2, 1098.82 2.51 M1038.2 78.34 C1061.17 51.92, 1084.14 25.49, 1103.15 3.62 M1038.2 78.34 C1061.72 51.29, 1085.24 24.24, 1103.15 3.62 M1043.85 77.94 C1060 59.36, 1076.15 40.78, 1107.49 4.74 M1043.85 77.94 C1060.44 58.85, 1077.04 39.76, 1107.49 4.74 M1048.83 78.3 C1069.63 54.38, 1090.42 30.46, 1109.19 8.87 M1048.83 78.3 C1066.58 57.89, 1084.33 37.48, 1109.19 8.87 M1054.48 77.91 C1071.26 58.6, 1088.05 39.29, 1111.55 12.25 M1054.48 77.91 C1075.19 54.08, 1095.91 30.25, 1111.55 12.25 M1059.46 78.27 C1076.43 58.75, 1093.4 39.23, 1112.61 17.14 M1059.46 78.27 C1072.5 63.27, 1085.54 48.28, 1112.61 17.14 M1065.11 77.88 C1081.6 58.9, 1098.1 39.92, 1114.31 21.27 M1065.11 77.88 C1077.19 63.98, 1089.27 50.08, 1114.31 21.27 M1070.09 78.24 C1083.53 62.78, 1096.97 47.32, 1114.05 27.67 M1070.09 78.24 C1080.84 65.87, 1091.58 53.51, 1114.05 27.67 M1075.74 77.84 C1090.93 60.36, 1106.13 42.88, 1114.45 33.31 M1075.74 77.84 C1089.27 62.27, 1102.8 46.71, 1114.45 33.31 M1080.72 78.2 C1090.98 66.41, 1101.23 54.61, 1114.18 39.71 M1080.72 78.2 C1092.27 64.92, 1103.81 51.64, 1114.18 39.71 M1086.37 77.81 C1093.43 69.69, 1100.49 61.57, 1113.92 46.11 M1086.37 77.81 C1095.77 66.99, 1105.17 56.18, 1113.92 46.11 M1092.67 76.66 C1099.15 69.2, 1105.62 61.75, 1114.32 51.75 M1092.67 76.66 C1097.55 71.04, 1102.43 65.43, 1114.32 51.75 M1098.97 75.51 C1103.17 70.67, 1107.38 65.83, 1113.4 58.9 M1098.97 75.51 C1103.46 70.34, 1107.95 65.17, 1113.4 58.9 M5 71.98 C5 71.98, 5 71.98, 5 71.98 M5 71.98 C5 71.98, 5 71.98, 5 71.98 M12.91 73.55 C10.39 71.36, 7.87 69.17, 2.35 64.37 M12.91 73.55 C8.94 70.1, 4.97 66.65, 2.35 64.37 M20.82 75.13 C15.78 70.75, 10.75 66.37, 0.44 57.41 M20.82 75.13 C13.38 68.66, 5.95 62.2, 0.44 57.41 M26.46 74.73 C20.85 69.85, 15.24 64.98, 0.05 51.77 M26.46 74.73 C19.17 68.39, 11.87 62.05, 0.05 51.77 M32.86 74.99 C25.31 68.43, 17.77 61.87, 0.41 46.78 M32.86 74.99 C22.93 66.36, 12.99 57.72, 0.41 46.78 M38.5 74.6 C26.81 64.44, 15.12 54.27, 0.01 41.14 M38.5 74.6 C23.96 61.95, 9.41 49.31, 0.01 41.14 M44.9 74.86 C32.83 64.37, 20.76 53.88, 0.37 36.15 M44.9 74.86 C27.48 59.72, 10.06 44.57, 0.37 36.15 M51.3 75.12 C31.92 58.28, 12.54 41.43, -0.02 30.51 M51.3 75.12 C37.32 62.98, 23.35 50.83, -0.02 30.51 M56.94 74.73 C44.76 64.13, 32.57 53.54, 0.34 25.52 M56.94 74.73 C44.27 63.71, 31.6 52.7, 0.34 25.52 M63.34 74.99 C45.96 59.88, 28.57 44.77, -0.06 19.88 M63.34 74.99 C39.55 54.31, 15.76 33.63, -0.06 19.88 M68.98 74.59 C49.52 57.68, 30.06 40.76, 2.57 16.86 M68.98 74.59 C53.55 61.18, 38.11 47.76, 2.57 16.86 M75.38 74.86 C59.94 61.43, 44.5 48.01, 1.42 10.56 M75.38 74.86 C51.13 53.78, 26.89 32.7, 1.42 10.56 M81.78 75.12 C57.68 54.17, 33.59 33.22, 3.29 6.89 M81.78 75.12 C60.55 56.66, 39.32 38.21, 3.29 6.89 M87.42 74.72 C57.13 48.39, 26.85 22.07, 5.91 3.87 M87.42 74.72 C55.14 46.66, 22.86 18.6, 5.91 3.87 M93.82 74.98 C73.78 57.57, 53.75 40.15, 8.54 0.85 M93.82 74.98 C75.35 58.93, 56.88 42.87, 8.54 0.85 M100.22 75.25 C71.76 50.51, 43.31 25.78, 13.42 -0.2 M100.22 75.25 C76.71 54.81, 53.2 34.37, 13.42 -0.2 M105.86 74.85 C85.94 57.53, 66.02 40.22, 19.07 -0.6 M105.86 74.85 C73.38 46.62, 40.91 18.39, 19.07 -0.6 M112.26 75.11 C93.36 58.68, 74.46 42.26, 25.47 -0.33 M112.26 75.11 C88.96 54.86, 65.67 34.62, 25.47 -0.33 M117.9 74.72 C99.09 58.37, 80.29 42.02, 31.86 -0.07 M117.9 74.72 C94.51 54.39, 71.12 34.05, 31.86 -0.07 M124.3 74.98 C93.35 48.08, 62.4 21.17, 37.51 -0.47 M124.3 74.98 C95.69 50.11, 67.09 25.25, 37.51 -0.47 M130.7 75.24 C104.24 52.25, 77.79 29.25, 43.9 -0.21 M130.7 75.24 C107.86 55.39, 85.03 35.55, 43.9 -0.21 M136.34 74.85 C115.98 57.15, 95.62 39.45, 49.55 -0.6 M136.34 74.85 C117.21 58.21, 98.07 41.58, 49.55 -0.6 M142.74 75.11 C110.98 47.5, 79.22 19.9, 55.95 -0.34 M142.74 75.11 C114.41 50.48, 86.08 25.86, 55.95 -0.34 M148.38 74.71 C121.11 51.01, 93.83 27.3, 62.34 -0.08 M148.38 74.71 C119.81 49.88, 91.24 25.05, 62.34 -0.08 M154.78 74.97 C132.68 55.76, 110.58 36.55, 67.99 -0.47 M154.78 74.97 C131.76 54.96, 108.73 34.95, 67.99 -0.47 M161.18 75.24 C140 56.83, 118.82 38.42, 74.38 -0.21 M161.18 75.24 C136.84 54.08, 112.51 32.93, 74.38 -0.21 M166.82 74.84 C132.21 44.76, 97.6 14.68, 80.03 -0.61 M166.82 74.84 C140.06 51.58, 113.31 28.33, 80.03 -0.61 M173.22 75.1 C153.18 57.68, 133.14 40.27, 86.42 -0.34 M173.22 75.1 C146.62 51.98, 120.03 28.87, 86.42 -0.34 M178.86 74.71 C161.57 59.68, 144.28 44.65, 92.82 -0.08 M178.86 74.71 C152.28 51.61, 125.71 28.51, 92.82 -0.08 M185.26 74.97 C162.01 54.76, 138.76 34.55, 98.47 -0.48 M185.26 74.97 C161.28 54.13, 137.31 33.29, 98.47 -0.48 M191.65 75.23 C170.91 57.2, 150.17 39.17, 104.86 -0.22 M191.65 75.23 C161.66 49.15, 131.66 23.08, 104.86 -0.22 M197.3 74.84 C169.51 50.68, 141.73 26.53, 110.51 -0.61 M197.3 74.84 C172.92 53.65, 148.55 32.46, 110.51 -0.61 M203.7 75.1 C180.65 55.06, 157.6 35.03, 116.9 -0.35 M203.7 75.1 C175.74 50.8, 147.79 26.5, 116.9 -0.35 M209.34 74.7 C181.12 50.17, 152.9 25.64, 123.3 -0.09 M209.34 74.7 C189.02 57.04, 168.7 39.37, 123.3 -0.09 M215.74 74.97 C197.64 59.24, 179.55 43.51, 128.94 -0.48 M215.74 74.97 C183.92 47.3, 152.09 19.64, 128.94 -0.48 M222.13 75.23 C204.2 59.64, 186.27 44.05, 135.34 -0.22 M222.13 75.23 C197.54 53.85, 172.95 32.47, 135.34 -0.22 M227.78 74.83 C195.63 46.89, 163.48 18.94, 140.99 -0.61 M227.78 74.83 C207.56 57.26, 187.35 39.69, 140.99 -0.61 M234.18 75.09 C212.8 56.51, 191.42 37.93, 147.38 -0.35 M234.18 75.09 C200.47 45.79, 166.76 16.49, 147.38 -0.35 M239.82 74.7 C220.11 57.56, 200.39 40.43, 153.78 -0.09 M239.82 74.7 C214.06 52.31, 188.3 29.92, 153.78 -0.09 M246.22 74.96 C219.12 51.4, 192.02 27.85, 159.42 -0.49 M246.22 74.96 C216.52 49.14, 186.82 23.33, 159.42 -0.49 M252.61 75.22 C232.01 57.32, 211.42 39.41, 165.82 -0.22 M252.61 75.22 C220.54 47.34, 188.46 19.46, 165.82 -0.22 M258.26 74.83 C237.02 56.37, 215.79 37.91, 171.47 -0.62 M258.26 74.83 C226.94 47.6, 195.62 20.37, 171.47 -0.62 M264.65 75.09 C245.32 58.28, 225.98 41.47, 177.86 -0.36 M264.65 75.09 C241.05 54.57, 217.44 34.05, 177.86 -0.36 M270.3 74.69 C248.03 55.34, 225.76 35.98, 184.26 -0.1 M270.3 74.69 C245.74 53.35, 221.18 32, 184.26 -0.1 M276.7 74.96 C243 45.66, 209.3 16.37, 189.9 -0.49 M276.7 74.96 C254.11 55.33, 231.53 35.7, 189.9 -0.49 M283.09 75.22 C253.15 49.19, 223.21 23.17, 196.3 -0.23 M283.09 75.22 C249.95 46.41, 216.81 17.6, 196.3 -0.23 M288.74 74.82 C261.71 51.33, 234.69 27.84, 201.94 -0.62 M288.74 74.82 C270.28 58.78, 251.83 42.74, 201.94 -0.62 M295.13 75.08 C271.85 54.84, 248.56 34.6, 208.34 -0.36 M295.13 75.08 C265.52 49.34, 235.91 23.6, 208.34 -0.36 M300.78 74.69 C271.1 48.89, 241.42 23.09, 214.74 -0.1 M300.78 74.69 C280.75 57.28, 260.72 39.86, 214.74 -0.1 M307.17 74.95 C275.14 47.11, 243.11 19.26, 220.38 -0.5 M307.17 74.95 C282.93 53.87, 258.68 32.79, 220.38 -0.5 M313.57 75.21 C294.76 58.86, 275.95 42.51, 226.78 -0.23 M313.57 75.21 C291.93 56.4, 270.29 37.59, 226.78 -0.23 M319.22 74.82 C287.75 47.47, 256.29 20.12, 232.42 -0.63 M319.22 74.82 C289.92 49.35, 260.62 23.88, 232.42 -0.63 M325.61 75.08 C305.7 57.77, 285.8 40.47, 238.82 -0.37 M325.61 75.08 C306.9 58.81, 288.18 42.54, 238.82 -0.37 M331.26 74.68 C302.1 49.34, 272.95 24, 245.22 -0.11 M331.26 74.68 C307.02 53.62, 282.79 32.55, 245.22 -0.11 M337.65 74.95 C315.03 55.28, 292.4 35.61, 250.86 -0.5 M337.65 74.95 C310.72 51.54, 283.79 28.12, 250.86 -0.5 M344.05 75.21 C312.52 47.8, 280.99 20.38, 257.26 -0.24 M344.05 75.21 C317.78 52.37, 291.5 29.53, 257.26 -0.24 M349.7 74.81 C318.43 47.63, 287.16 20.45, 263.66 0.02 M349.7 74.81 C320.72 49.62, 291.74 24.44, 263.66 0.02 M356.09 75.07 C332.12 54.24, 308.15 33.4, 269.3 -0.37 M356.09 75.07 C337.28 58.72, 318.46 42.36, 269.3 -0.37 M361.74 74.68 C330.31 47.36, 298.89 20.05, 275.7 -0.11 M361.74 74.68 C333.89 50.48, 306.05 26.27, 275.7 -0.11 M368.13 74.94 C342.74 52.86, 317.34 30.78, 281.34 -0.51 M368.13 74.94 C345.15 54.96, 322.17 34.98, 281.34 -0.51 M374.53 75.2 C351.19 54.92, 327.86 34.63, 287.74 -0.24 M374.53 75.2 C346.38 50.73, 318.23 26.26, 287.74 -0.24 M380.17 74.81 C362.72 59.63, 345.26 44.45, 294.14 0.02 M380.17 74.81 C353.26 51.41, 326.34 28.01, 294.14 0.02 M386.57 75.07 C364.69 56.05, 342.81 37.02, 299.78 -0.38 M386.57 75.07 C367.7 58.66, 348.83 42.26, 299.78 -0.38 M392.22 74.67 C360.18 46.83, 328.15 18.98, 306.18 -0.12 M392.22 74.67 C370.54 55.83, 348.87 36.99, 306.18 -0.12 M398.61 74.94 C375.38 54.74, 352.14 34.54, 311.82 -0.51 M398.61 74.94 C372.01 51.81, 345.42 28.69, 311.82 -0.51 M405.01 75.2 C375.42 49.47, 345.82 23.74, 318.22 -0.25 M405.01 75.2 C370.47 45.17, 335.93 15.14, 318.22 -0.25 M410.65 74.8 C389.72 56.6, 368.79 38.41, 324.62 0.01 M410.65 74.8 C383.13 50.88, 355.61 26.95, 324.62 0.01 M417.05 75.06 C397.59 58.15, 378.13 41.23, 330.26 -0.38 M417.05 75.06 C391.7 53.02, 366.34 30.98, 330.26 -0.38 M422.7 74.67 C398.46 53.6, 374.22 32.53, 336.66 -0.12 M422.7 74.67 C404.52 58.87, 386.34 43.07, 336.66 -0.12 M429.09 74.93 C401.99 51.37, 374.89 27.82, 342.3 -0.52 M429.09 74.93 C403.02 52.27, 376.95 29.61, 342.3 -0.52 M435.49 75.19 C412.87 55.53, 390.25 35.86, 348.7 -0.25 M435.49 75.19 C404.32 48.1, 373.16 21.01, 348.7 -0.25 M441.13 74.8 C417.88 54.58, 394.63 34.37, 355.1 0.01 M441.13 74.8 C422.75 58.82, 404.37 42.84, 355.1 0.01 M447.53 75.06 C427.32 57.49, 407.12 39.93, 360.74 -0.39 M447.53 75.06 C415.69 47.38, 383.85 19.7, 360.74 -0.39 M453.17 74.67 C424.05 49.35, 394.92 24.03, 367.14 -0.13 M453.17 74.67 C431.83 56.11, 410.49 37.56, 367.14 -0.13 M459.57 74.93 C439.96 57.87, 420.34 40.82, 372.78 -0.52 M459.57 74.93 C436.73 55.07, 413.89 35.22, 372.78 -0.52 M465.97 75.19 C437.13 50.12, 408.29 25.05, 379.18 -0.26 M465.97 75.19 C444.74 56.73, 423.51 38.28, 379.18 -0.26 M471.61 74.79 C450.71 56.63, 429.82 38.46, 385.58 0 M471.61 74.79 C445.68 52.25, 419.75 29.71, 385.58 0 M478.01 75.05 C457.03 56.81, 436.04 38.57, 391.22 -0.39 M478.01 75.05 C454.64 54.74, 431.28 34.43, 391.22 -0.39 M483.65 74.66 C461.18 55.12, 438.7 35.58, 397.62 -0.13 M483.65 74.66 C452.66 47.72, 421.67 20.78, 397.62 -0.13 M490.05 74.92 C469.9 57.4, 449.75 39.89, 403.26 -0.53 M490.05 74.92 C471.56 58.85, 453.07 42.78, 403.26 -0.53 M496.45 75.18 C476.16 57.54, 455.86 39.9, 409.66 -0.26 M496.45 75.18 C466.68 49.3, 436.91 23.42, 409.66 -0.26 M502.09 74.79 C481.12 56.55, 460.14 38.32, 416.06 0 M502.09 74.79 C468.37 45.47, 434.64 16.15, 416.06 0 M508.49 75.05 C483.47 53.3, 458.45 31.55, 421.7 -0.4 M508.49 75.05 C475.65 46.5, 442.81 17.96, 421.7 -0.4 M514.13 74.66 C480.42 45.35, 446.71 16.05, 428.1 -0.14 M514.13 74.66 C484.27 48.69, 454.4 22.73, 428.1 -0.14 M520.53 74.92 C492.11 50.21, 463.7 25.51, 433.74 -0.53 M520.53 74.92 C501.46 58.33, 482.38 41.75, 433.74 -0.53 M526.93 75.18 C495.12 47.53, 463.31 19.87, 440.14 -0.27 M526.93 75.18 C505.71 56.74, 484.5 38.29, 440.14 -0.27 M532.57 74.78 C512.87 57.66, 493.17 40.54, 446.54 -0.01 M532.57 74.78 C511.43 56.4, 490.28 38.02, 446.54 -0.01 M538.97 75.05 C518.74 57.46, 498.51 39.87, 452.18 -0.4 M538.97 75.05 C515.1 54.3, 491.24 33.55, 452.18 -0.4 M544.61 74.65 C523.48 56.28, 502.35 37.91, 458.58 -0.14 M544.61 74.65 C522.26 55.21, 499.9 35.78, 458.58 -0.14 M551.01 74.91 C530.9 57.43, 510.78 39.94, 464.22 -0.53 M551.01 74.91 C528.9 55.69, 506.79 36.47, 464.22 -0.53 M557.41 75.17 C539.6 59.7, 521.8 44.22, 470.62 -0.27 M557.41 75.17 C532.19 53.25, 506.97 31.33, 470.62 -0.27 M563.05 74.78 C530.55 46.52, 498.04 18.26, 477.01 -0.01 M563.05 74.78 C543.71 57.97, 524.38 41.16, 477.01 -0.01 M569.45 75.04 C542.52 51.63, 515.59 28.22, 482.66 -0.41 M569.45 75.04 C535.48 45.51, 501.51 15.98, 482.66 -0.41 M575.09 74.65 C552.6 55.09, 530.1 35.54, 489.06 -0.14 M575.09 74.65 C553.5 55.87, 531.9 37.1, 489.06 -0.14 M581.49 74.91 C552.09 49.35, 522.69 23.79, 494.7 -0.54 M581.49 74.91 C560.59 56.74, 539.69 38.57, 494.7 -0.54 M587.89 75.17 C566.37 56.46, 544.85 37.76, 501.1 -0.28 M587.89 75.17 C568.4 58.23, 548.91 41.29, 501.1 -0.28 M593.53 74.77 C572.6 56.58, 551.67 38.38, 507.49 -0.02 M593.53 74.77 C564.07 49.16, 534.61 23.55, 507.49 -0.02 M599.93 75.04 C575.85 54.1, 551.77 33.17, 513.14 -0.41 M599.93 75.04 C577.24 55.32, 554.56 35.6, 513.14 -0.41 M605.57 74.64 C575.32 48.34, 545.07 22.05, 519.54 -0.15 M605.57 74.64 C586.24 57.83, 566.9 41.03, 519.54 -0.15 M611.97 74.9 C588.95 54.89, 565.92 34.87, 525.18 -0.54 M611.97 74.9 C585.72 52.08, 559.46 29.26, 525.18 -0.54 M618.37 75.16 C586.56 47.51, 554.75 19.86, 531.58 -0.28 M618.37 75.16 C597.43 56.97, 576.5 38.77, 531.58 -0.28 M624.01 74.77 C598.06 52.21, 572.11 29.65, 537.97 -0.02 M624.01 74.77 C597 51.29, 569.99 27.81, 537.97 -0.02 M630.41 75.03 C598.68 47.45, 566.94 19.86, 543.62 -0.42 M630.41 75.03 C598.26 47.09, 566.12 19.15, 543.62 -0.42 M636.05 74.64 C614.39 55.81, 592.73 36.98, 550.01 -0.15 M636.05 74.64 C611.38 53.19, 586.72 31.75, 550.01 -0.15 M642.45 74.9 C624.94 59.67, 607.43 44.45, 555.66 -0.55 M642.45 74.9 C623.72 58.62, 605 42.34, 555.66 -0.55 M648.85 75.16 C617.96 48.31, 587.08 21.46, 562.06 -0.29 M648.85 75.16 C628.29 57.29, 607.74 39.42, 562.06 -0.29 M654.49 74.76 C628.45 52.13, 602.41 29.49, 568.45 -0.03 M654.49 74.76 C636.78 59.37, 619.07 43.97, 568.45 -0.03 M660.89 75.03 C640.99 57.73, 621.1 40.44, 574.1 -0.42 M660.89 75.03 C643.07 59.54, 625.25 44.04, 574.1 -0.42 M666.53 74.63 C643.21 54.36, 619.9 34.09, 580.49 -0.16 M666.53 74.63 C632.61 45.15, 598.69 15.66, 580.49 -0.16 M672.93 74.89 C650.19 55.12, 627.45 35.36, 586.14 -0.55 M672.93 74.89 C650.52 55.41, 628.11 35.93, 586.14 -0.55 M679.33 75.15 C654.63 53.68, 629.93 32.21, 592.54 -0.29 M679.33 75.15 C656.82 55.59, 634.31 36.02, 592.54 -0.29 M684.97 74.76 C666.08 58.34, 647.19 41.92, 598.93 -0.03 M684.97 74.76 C660.32 53.34, 635.68 31.91, 598.93 -0.03 M691.37 75.02 C665.67 52.68, 639.97 30.34, 604.58 -0.43 M691.37 75.02 C664.92 52.03, 638.46 29.03, 604.58 -0.43 M697.01 74.63 C676.19 56.53, 655.37 38.43, 610.97 -0.16 M697.01 74.63 C679.28 59.21, 661.54 43.79, 610.97 -0.16 M703.41 74.89 C683.16 57.29, 662.91 39.69, 616.62 -0.56 M703.41 74.89 C680.93 55.35, 658.45 35.81, 616.62 -0.56 M709.81 75.15 C688.58 56.7, 667.35 38.24, 623.01 -0.3 M709.81 75.15 C678.71 48.12, 647.62 21.09, 623.01 -0.3 M715.45 74.75 C681.13 44.92, 646.81 15.09, 629.41 -0.04 M715.45 74.75 C691.75 54.15, 668.04 33.55, 629.41 -0.04 M721.85 75.02 C694.28 51.05, 666.71 27.09, 635.06 -0.43 M721.85 75.02 C695.05 51.72, 668.24 28.42, 635.06 -0.43 M727.49 74.62 C704.2 54.38, 680.92 34.14, 641.45 -0.17 M727.49 74.62 C698.85 49.73, 670.22 24.84, 641.45 -0.17 M733.89 74.88 C705.57 50.27, 677.25 25.65, 647.1 -0.56 M733.89 74.88 C712.29 56.11, 690.7 37.34, 647.1 -0.56 M740.29 75.14 C714.14 52.41, 687.99 29.68, 653.49 -0.3 M740.29 75.14 C719.93 57.45, 699.58 39.76, 653.49 -0.3 M745.93 74.75 C719.19 51.5, 692.45 28.26, 659.89 -0.04 M745.93 74.75 C712 45.26, 678.08 15.77, 659.89 -0.04 M752.33 75.01 C724.68 50.98, 697.04 26.95, 665.54 -0.44 M752.33 75.01 C734.18 59.24, 716.04 43.47, 665.54 -0.44 M757.97 74.62 C733.32 53.19, 708.68 31.77, 671.93 -0.17 M757.97 74.62 C724.74 45.73, 691.5 16.84, 671.93 -0.17 M764.37 74.88 C736.15 50.35, 707.93 25.82, 677.58 -0.57 M764.37 74.88 C737.46 51.49, 710.56 28.11, 677.58 -0.57 M770.77 75.14 C749.64 56.77, 728.51 38.41, 683.97 -0.31 M770.77 75.14 C745.53 53.2, 720.3 31.27, 683.97 -0.31 M776.41 74.75 C750.7 52.4, 724.99 30.05, 690.37 -0.05 M776.41 74.75 C757.84 58.61, 739.28 42.47, 690.37 -0.05 M782.81 75.01 C752.69 48.83, 722.57 22.65, 696.01 -0.44 M782.81 75.01 C748.2 44.92, 713.59 14.84, 696.01 -0.44 M788.45 74.61 C754.7 45.27, 720.95 15.93, 702.41 -0.18 M788.45 74.61 C768.66 57.41, 748.88 40.21, 702.41 -0.18 M794.85 74.87 C765.57 49.42, 736.29 23.97, 708.06 -0.57 M794.85 74.87 C775.21 57.8, 755.57 40.73, 708.06 -0.57 M801.24 75.13 C772.31 49.99, 743.38 24.84, 714.45 -0.31 M801.24 75.13 C776.85 53.93, 752.45 32.72, 714.45 -0.31 M806.89 74.74 C778.52 50.08, 750.14 25.41, 720.85 -0.05 M806.89 74.74 C779.84 51.23, 752.79 27.71, 720.85 -0.05 M813.29 75 C793.79 58.05, 774.29 41.1, 726.49 -0.45 M813.29 75 C785.28 50.66, 757.27 26.31, 726.49 -0.45 M818.93 74.61 C800.48 58.57, 782.03 42.53, 732.89 -0.18 M818.93 74.61 C799.22 57.48, 779.51 40.34, 732.89 -0.18 M825.33 74.87 C795.47 48.91, 765.61 22.96, 738.53 -0.58 M825.33 74.87 C796.41 49.73, 767.49 24.59, 738.53 -0.58 M831.72 75.13 C809.45 55.77, 787.17 36.4, 744.93 -0.32 M831.72 75.13 C800.37 47.87, 769.01 20.61, 744.93 -0.32 M837.37 74.74 C807.76 49, 778.15 23.26, 751.33 -0.06 M837.37 74.74 C810.16 51.09, 782.96 27.44, 751.33 -0.06 M843.77 75 C818.02 52.62, 792.28 30.24, 756.97 -0.45 M843.77 75 C815.37 50.31, 786.98 25.63, 756.97 -0.45 M849.41 74.6 C827.66 55.7, 805.92 36.8, 763.37 -0.19 M849.41 74.6 C823.59 52.15, 797.76 29.71, 763.37 -0.19 M855.81 74.86 C825.47 48.49, 795.13 22.12, 769.01 -0.58 M855.81 74.86 C823.9 47.13, 791.99 19.39, 769.01 -0.58 M862.2 75.13 C838.55 54.56, 814.89 34, 775.41 -0.32 M862.2 75.13 C832.82 49.58, 803.43 24.03, 775.41 -0.32 M867.85 74.73 C850.15 59.35, 832.45 43.96, 781.81 -0.06 M867.85 74.73 C837.85 48.65, 807.84 22.57, 781.81 -0.06 M874.24 74.99 C841.15 46.22, 808.05 17.45, 787.45 -0.45 M874.24 74.99 C847.33 51.6, 820.42 28.2, 787.45 -0.45 M879.89 74.6 C860.07 57.37, 840.26 40.15, 793.85 -0.19 M879.89 74.6 C848.79 47.56, 817.69 20.53, 793.85 -0.19 M886.29 74.86 C857.49 49.82, 828.69 24.79, 799.49 -0.59 M886.29 74.86 C858.68 50.86, 831.07 26.86, 799.49 -0.59 M892.68 75.12 C861.13 47.69, 829.57 20.26, 805.89 -0.33 M892.68 75.12 C864.75 50.84, 836.82 26.56, 805.89 -0.33 M898.33 74.73 C876.67 55.9, 855.01 37.07, 812.29 -0.07 M898.33 74.73 C873.28 52.95, 848.23 31.18, 812.29 -0.07 M904.72 74.99 C876.88 50.78, 849.04 26.58, 817.93 -0.46 M904.72 74.99 C872.53 47, 840.34 19.02, 817.93 -0.46 M911.12 75.25 C889.96 56.85, 868.8 38.46, 824.33 -0.2 M911.12 75.25 C877.9 46.37, 844.68 17.49, 824.33 -0.2 M916.77 74.85 C882.73 45.27, 848.69 15.68, 829.97 -0.59 M916.77 74.85 C892.92 54.13, 869.08 33.4, 829.97 -0.59 M923.16 75.12 C889.68 46.01, 856.2 16.91, 836.37 -0.33 M923.16 75.12 C890.92 47.09, 858.69 19.07, 836.37 -0.33 M928.81 74.72 C907.91 56.55, 887.01 38.39, 842.77 -0.07 M928.81 74.72 C909.52 57.95, 890.23 41.19, 842.77 -0.07 M935.2 74.98 C906.53 50.06, 877.86 25.13, 848.41 -0.46 M935.2 74.98 C912.57 55.31, 889.95 35.64, 848.41 -0.46 M941.6 75.24 C914.41 51.61, 887.22 27.97, 854.81 -0.2 M941.6 75.24 C921.17 57.48, 900.74 39.72, 854.81 -0.2 M947.24 74.85 C920.75 51.81, 894.25 28.78, 860.45 -0.6 M947.24 74.85 C923.02 53.79, 898.79 32.73, 860.45 -0.6 M953.64 75.11 C934.68 58.62, 915.71 42.14, 866.85 -0.34 M953.64 75.11 C923.32 48.75, 893 22.4, 866.85 -0.34 M959.29 74.72 C932.32 51.28, 905.36 27.84, 873.25 -0.07 M959.29 74.72 C935.18 53.77, 911.08 32.81, 873.25 -0.07 M965.68 74.98 C935.41 48.66, 905.13 22.34, 878.89 -0.47 M965.68 74.98 C945.54 57.47, 925.4 39.96, 878.89 -0.47 M972.08 75.24 C943.24 50.17, 914.4 25.1, 885.29 -0.21 M972.08 75.24 C942.37 49.42, 912.67 23.59, 885.29 -0.21 M977.72 74.84 C954.33 54.51, 930.95 34.18, 890.93 -0.6 M977.72 74.84 C945.22 46.59, 912.71 18.33, 890.93 -0.6 M984.12 75.11 C956.81 51.36, 929.49 27.61, 897.33 -0.34 M984.12 75.11 C952.09 47.26, 920.05 19.41, 897.33 -0.34 M989.76 74.71 C962.17 50.73, 934.58 26.74, 903.73 -0.08 M989.76 74.71 C964.57 52.81, 939.38 30.91, 903.73 -0.08 M996.16 74.97 C962.44 45.66, 928.73 16.35, 909.37 -0.47 M996.16 74.97 C971.07 53.16, 945.99 31.36, 909.37 -0.47 M1002.56 75.23 C983.67 58.81, 964.77 42.39, 915.77 -0.21 M1002.56 75.23 C974.1 50.5, 945.65 25.76, 915.77 -0.21 M1008.2 74.84 C985.96 55.5, 963.71 36.17, 921.41 -0.61 M1008.2 74.84 C986.01 55.55, 963.81 36.25, 921.41 -0.61 M1014.6 75.1 C992.84 56.18, 971.08 37.27, 927.81 -0.35 M1014.6 75.1 C993.27 56.56, 971.94 38.02, 927.81 -0.35 M1020.24 74.71 C986.19 45.1, 952.13 15.49, 934.21 -0.08 M1020.24 74.71 C998.94 56.19, 977.64 37.67, 934.21 -0.08 M1026.64 74.97 C1001.9 53.46, 977.17 31.96, 939.85 -0.48 M1026.64 74.97 C1006.03 57.05, 985.42 39.14, 939.85 -0.48 M1033.04 75.23 C1010.48 55.62, 987.92 36.01, 946.25 -0.22 M1033.04 75.23 C1009.77 55, 986.49 34.76, 946.25 -0.22 M1038.68 74.83 C1007.37 47.61, 976.05 20.39, 951.89 -0.61 M1038.68 74.83 C1010.99 50.76, 983.3 26.69, 951.89 -0.61 M1045.08 75.1 C1021.1 54.25, 997.13 33.41, 958.29 -0.35 M1045.08 75.1 C1015.05 48.99, 985.02 22.89, 958.29 -0.35 M1050.72 74.7 C1025.49 52.76, 1000.25 30.82, 964.69 -0.09 M1050.72 74.7 C1022.21 49.91, 993.69 25.12, 964.69 -0.09 M1057.12 74.96 C1035.64 56.29, 1014.15 37.61, 970.33 -0.48 M1057.12 74.96 C1028.09 49.72, 999.05 24.48, 970.33 -0.48 M1063.52 75.22 C1039.84 54.64, 1016.16 34.06, 976.73 -0.22 M1063.52 75.22 C1033.94 49.51, 1004.36 23.8, 976.73 -0.22 M1069.16 74.83 C1038.65 48.31, 1008.14 21.78, 982.37 -0.62 M1069.16 74.83 C1042.05 51.26, 1014.94 27.7, 982.37 -0.62 M1075.56 75.09 C1052.6 55.13, 1029.64 35.18, 988.77 -0.36 M1075.56 75.09 C1054.9 57.14, 1034.25 39.18, 988.77 -0.36 M1081.2 74.7 C1051.87 49.19, 1022.53 23.69, 995.17 -0.09 M1081.2 74.7 C1048.25 46.05, 1015.3 17.41, 995.17 -0.09 M1087.6 74.96 C1069.49 59.22, 1051.38 43.47, 1000.81 -0.49 M1087.6 74.96 C1058.17 49.37, 1028.73 23.79, 1000.81 -0.49 M1094 75.22 C1064.18 49.29, 1034.35 23.37, 1007.21 -0.23 M1094 75.22 C1070.14 54.48, 1046.29 33.74, 1007.21 -0.23 M1098.89 74.17 C1079.92 57.68, 1060.95 41.19, 1012.85 -0.62 M1098.89 74.17 C1065.75 45.36, 1032.61 16.55, 1012.85 -0.62 M1103.02 72.46 C1081.06 53.37, 1059.1 34.28, 1019.25 -0.36 M1103.02 72.46 C1074.41 47.59, 1045.79 22.71, 1019.25 -0.36 M1107.91 71.41 C1075.81 43.51, 1043.72 15.61, 1025.65 -0.1 M1107.91 71.41 C1079.76 46.94, 1051.61 22.47, 1025.65 -0.1 M1109.78 67.74 C1080.4 42.2, 1051.02 16.66, 1031.29 -0.49 M1109.78 67.74 C1081.4 43.06, 1053.01 18.39, 1031.29 -0.49 M1111.65 64.06 C1083.32 39.44, 1055 14.81, 1037.69 -0.23 M1111.65 64.06 C1096.77 51.13, 1081.9 38.2, 1037.69 -0.23 M1112.76 59.73 C1089.65 39.64, 1066.54 19.55, 1043.33 -0.63 M1112.76 59.73 C1089.26 39.3, 1065.76 18.87, 1043.33 -0.63 M1113.88 55.4 C1098.53 42.06, 1083.19 28.72, 1049.73 -0.37 M1113.88 55.4 C1089.63 34.32, 1065.37 13.23, 1049.73 -0.37 M1113.48 49.76 C1092.52 31.53, 1071.55 13.3, 1056.13 -0.1 M1113.48 49.76 C1096.23 34.76, 1078.98 19.77, 1056.13 -0.1 M1113.84 44.77 C1094.37 27.84, 1074.89 10.91, 1061.77 -0.5 M1113.84 44.77 C1097.49 30.56, 1081.14 16.34, 1061.77 -0.5 M1113.45 39.13 C1100.99 28.3, 1088.54 17.47, 1068.17 -0.24 M1113.45 39.13 C1099.78 27.25, 1086.11 15.36, 1068.17 -0.24 M1113.81 34.14 C1098.99 21.26, 1084.16 8.37, 1074.56 0.02 M1113.81 34.14 C1103.02 24.76, 1092.23 15.38, 1074.56 0.02 M1113.41 28.5 C1105.47 21.59, 1097.53 14.69, 1080.21 -0.37 M1113.41 28.5 C1106.1 22.14, 1098.78 15.78, 1080.21 -0.37 M1113.77 23.51 C1107.92 18.42, 1102.07 13.33, 1086.6 -0.11 M1113.77 23.51 C1104.21 15.2, 1094.65 6.89, 1086.6 -0.11 M1113.38 17.87 C1109.09 14.14, 1104.8 10.4, 1093 0.15 M1113.38 17.87 C1106.05 11.49, 1098.72 5.12, 1093 0.15 M1110.72 10.26 C1108.32 8.17, 1105.91 6.08, 1100.16 1.07 M1110.72 10.26 C1107.97 7.86, 1105.21 5.46, 1100.16 1.07" stroke="#e9ecef" stroke-width="0.5" fill="none"></path><path d="M19.14 0 M19.14 0 C359.52 0, 699.9 0, 1092.57 0 M19.14 0 C285.97 0, 552.79 0, 1092.57 0 M1092.57 0 C1105.33 0, 1111.71 6.38, 1111.71 19.14 M1092.57 0 C1105.33 0, 1111.71 6.38, 1111.71 19.14 M1111.71 19.14 C1111.71 32.33, 1111.71 45.51, 1111.71 57.43 M1111.71 19.14 C1111.71 31.09, 1111.71 43.04, 1111.71 57.43 M1111.71 57.43 C1111.71 70.2, 1105.33 76.58, 1092.57 76.58 M1111.71 57.43 C1111.71 70.2, 1105.33 76.58, 1092.57 76.58 M1092.57 76.58 C739.78 76.58, 387 76.58, 19.14 76.58 M1092.57 76.58 C804.31 76.58, 516.05 76.58, 19.14 76.58 M19.14 76.58 C6.38 76.58, 0 70.2, 0 57.43 M19.14 76.58 C6.38 76.58, 0 70.2, 0 57.43 M0 57.43 C0 43.82, 0 30.21, 0 19.14 M0 57.43 C0 42.86, 0 28.3, 0 19.14 M0 19.14 C0 6.38, 6.38 0, 19.14 0 M0 19.14 C0 6.38, 6.38 0, 19.14 0" stroke="#959ba1" stroke-width="1" fill="none"></path></g><g transform="translate(379.44129943847656 25.85778595542233) rotate(0 516.796875 21.6)"><text x="0" y="0" font-family="Cascadia, Segoe UI Emoji" font-size="36px" fill="#343a40" text-anchor="start" style="white-space: pre;" direction="ltr" dominant-baseline="text-before-edge">Client Server , K-Streams , Stomp Over Websocket </text></g><g stroke-linecap="round" transform="translate(831.7384948730469 668.8917388916016) rotate(0 100.90084838867188 77.927978515625)"><path d="M32 0 L169.8 0 L177.3 0.5 L183.8 2 L189.3 4.5 L193.8 8 L197.3 12.5 L199.8 18 L201.3 24.5 L201.8 32 L201.3 131.36 L199.8 137.86 L197.3 143.36 L193.8 147.86 L189.3 151.36 L183.8 153.86 L177.3 155.36 L169.8 155.86 L32 155.86 L24.5 155.36 L18 153.86 L12.5 151.36 L8 147.86 L4.5 143.36 L2 137.86 L0.5 131.36 L0 123.86 L0.5 24.5 L2 18 L4.5 12.5 L8 8 L12.5 4.5 L18 2 L24.5 0.5 L32 0" stroke="none" stroke-width="0" fill="#1976d2"></path><path d="M32 0 M32 0 C75.89 0, 119.78 0, 169.8 0 M32 0 C84.03 0, 136.05 0, 169.8 0 M169.8 0 C191.14 0, 201.8 10.67, 201.8 32 M169.8 0 C191.14 0, 201.8 10.67, 201.8 32 M201.8 32 C201.8 66.23, 201.8 100.46, 201.8 123.86 M201.8 32 C201.8 58.87, 201.8 85.73, 201.8 123.86 M201.8 123.86 C201.8 145.19, 191.14 155.86, 169.8 155.86 M201.8 123.86 C201.8 145.19, 191.14 155.86, 169.8 155.86 M169.8 155.86 C123.35 155.86, 76.91 155.86, 32 155.86 M169.8 155.86 C133.88 155.86, 97.95 155.86, 32 155.86 M32 155.86 C10.67 155.86, 0 145.19, 0 123.86 M32 155.86 C10.67 155.86, 0 145.19, 0 123.86 M0 123.86 C0 90.41, 0 56.96, 0 32 M0 123.86 C0 105.27, 0 86.68, 0 32 M0 32 C0 10.67, 10.67 0, 32 0 M0 32 C0 10.67, 10.67 0, 32 0" stroke="#343a40" stroke-width="4" fill="none"></path></g><g stroke-linecap="round" transform="translate(817.1891174316406 170.11720275878906) rotate(0 100.90084838867188 86.48649597167969)"><path d="M32 0 L169.8 0 L177.3 0.5 L183.8 2 L189.3 4.5 L193.8 8 L197.3 12.5 L199.8 18 L201.3 24.5 L201.8 32 L201.8 140.97 L201.3 148.47 L199.8 154.97 L197.3 160.47 L193.8 164.97 L189.3 168.47 L183.8 170.97 L177.3 172.47 L169.8 172.97 L32 172.97 L24.5 172.47 L18 170.97 L12.5 168.47 L8 164.97 L4.5 160.47 L2 154.97 L0.5 148.47 L0 140.97 L0.5 24.5 L2 18 L4.5 12.5 L8 8 L12.5 4.5 L18 2 L24.5 0.5 L32 0" stroke="none" stroke-width="0" fill="#1976d2"></path><path d="M32 0 M32 0 C74.1 0, 116.2 0, 169.8 0 M32 0 C83.58 0, 135.15 0, 169.8 0 M169.8 0 C191.14 0, 201.8 10.67, 201.8 32 M169.8 0 C191.14 0, 201.8 10.67, 201.8 32 M201.8 32 C201.8 69.62, 201.8 107.24, 201.8 140.97 M201.8 32 C201.8 71.78, 201.8 111.55, 201.8 140.97 M201.8 140.97 C201.8 162.31, 191.14 172.97, 169.8 172.97 M201.8 140.97 C201.8 162.31, 191.14 172.97, 169.8 172.97 M169.8 172.97 C118.93 172.97, 68.06 172.97, 32 172.97 M169.8 172.97 C119.65 172.97, 69.49 172.97, 32 172.97 M32 172.97 C10.67 172.97, 0 162.31, 0 140.97 M32 172.97 C10.67 172.97, 0 162.31, 0 140.97 M0 140.97 C0 114.75, 0 88.52, 0 32 M0 140.97 C0 118.59, 0 96.21, 0 32 M0 32 C0 10.67, 10.67 0, 32 0 M0 32 C0 10.67, 10.67 0, 32 0" stroke="#343a40" stroke-width="4" fill="none"></path></g><g stroke-linecap="round" transform="translate(362.756591796875 424.51341247558594) rotate(0 86.03599548339844 101.80178833007812)"><path d="M172.07 101.8 C172.07 105.13, 171.93 108.47, 171.66 111.78 C171.38 115.09, 170.97 118.4, 170.42 121.66 C169.87 124.92, 169.18 128.17, 168.37 131.35 C167.55 134.54, 166.6 137.69, 165.52 140.76 C164.45 143.83, 163.24 146.86, 161.91 149.79 C160.59 152.72, 159.13 155.59, 157.57 158.36 C156.01 161.13, 154.33 163.81, 152.54 166.38 C150.76 168.96, 148.86 171.43, 146.87 173.79 C144.88 176.14, 142.79 178.39, 140.62 180.5 C138.44 182.61, 136.17 184.6, 133.84 186.45 C131.5 188.29, 129.07 190.02, 126.59 191.58 C124.11 193.15, 121.56 194.58, 118.96 195.85 C116.36 197.13, 113.7 198.25, 111.01 199.22 C108.32 200.19, 105.58 201, 102.82 201.65 C100.06 202.3, 97.27 202.79, 94.47 203.11 C91.67 203.44, 88.85 203.6, 86.04 203.6 C83.22 203.6, 80.4 203.44, 77.6 203.11 C74.81 202.79, 72.01 202.3, 69.25 201.65 C66.49 201, 63.75 200.19, 61.06 199.22 C58.37 198.25, 55.71 197.13, 53.11 195.85 C50.51 194.58, 47.96 193.15, 45.48 191.58 C43 190.02, 40.57 188.29, 38.24 186.45 C35.9 184.6, 33.63 182.61, 31.46 180.5 C29.28 178.39, 27.19 176.14, 25.2 173.79 C23.21 171.43, 21.31 168.96, 19.53 166.38 C17.75 163.81, 16.06 161.13, 14.5 158.36 C12.94 155.59, 11.48 152.72, 10.16 149.79 C8.83 146.86, 7.62 143.83, 6.55 140.76 C5.47 137.69, 4.52 134.54, 3.7 131.35 C2.89 128.17, 2.2 124.92, 1.65 121.66 C1.1 118.4, 0.69 115.09, 0.41 111.78 C0.14 108.47, 0 105.13, 0 101.8 C0 98.48, 0.14 95.13, 0.41 91.82 C0.69 88.51, 1.1 85.2, 1.65 81.94 C2.2 78.68, 2.89 75.43, 3.7 72.25 C4.52 69.07, 5.47 65.92, 6.55 62.84 C7.62 59.77, 8.83 56.75, 10.16 53.81 C11.48 50.88, 12.94 48.01, 14.5 45.24 C16.06 42.48, 17.75 39.79, 19.53 37.22 C21.31 34.65, 23.21 32.17, 25.2 29.82 C27.19 27.47, 29.28 25.22, 31.46 23.11 C33.63 21, 35.9 19, 38.24 17.16 C40.57 15.31, 43 13.59, 45.48 12.02 C47.96 10.45, 50.51 9.02, 53.11 7.75 C55.71 6.48, 58.37 5.35, 61.06 4.38 C63.75 3.42, 66.49 2.6, 69.25 1.96 C72.01 1.31, 74.81 0.82, 77.6 0.49 C80.4 0.16, 83.22 0, 86.04 0 C88.85 0, 91.67 0.16, 94.47 0.49 C97.27 0.82, 100.06 1.31, 102.82 1.96 C105.58 2.6, 108.32 3.42, 111.01 4.38 C113.7 5.35, 116.36 6.48, 118.96 7.75 C121.56 9.02, 124.11 10.45, 126.59 12.02 C129.07 13.59, 131.5 15.31, 133.84 17.16 C136.17 19, 138.44 21, 140.62 23.11 C142.79 25.22, 144.88 27.47, 146.87 29.82 C148.86 32.17, 150.76 34.65, 152.54 37.22 C154.33 39.79, 156.01 42.48, 157.57 45.24 C159.13 48.01, 160.59 50.88, 161.91 53.81 C163.24 56.75, 164.45 59.77, 165.52 62.84 C166.6 65.92, 167.55 69.07, 168.37 72.25 C169.18 75.43, 169.87 78.68, 170.42 81.94 C170.97 85.2, 171.38 88.51, 171.66 91.82 C171.93 95.13, 172 100.14, 172.07 101.8 C172.14 103.46, 172.14 100.14, 172.07 101.8" stroke="none" stroke-width="0" fill="#2f9e44"></path><path d="M172.07 101.8 C172.07 105.13, 171.93 108.47, 171.66 111.78 C171.38 115.09, 170.97 118.4, 170.42 121.66 C169.87 124.92, 169.18 128.17, 168.37 131.35 C167.55 134.54, 166.6 137.69, 165.52 140.76 C164.45 143.83, 163.24 146.86, 161.91 149.79 C160.59 152.72, 159.13 155.59, 157.57 158.36 C156.01 161.13, 154.33 163.81, 152.54 166.38 C150.76 168.96, 148.86 171.43, 146.87 173.79 C144.88 176.14, 142.79 178.39, 140.62 180.5 C138.44 182.61, 136.17 184.6, 133.84 186.45 C131.5 188.29, 129.07 190.02, 126.59 191.58 C124.11 193.15, 121.56 194.58, 118.96 195.85 C116.36 197.13, 113.7 198.25, 111.01 199.22 C108.32 200.19, 105.58 201, 102.82 201.65 C100.06 202.3, 97.27 202.79, 94.47 203.11 C91.67 203.44, 88.85 203.6, 86.04 203.6 C83.22 203.6, 80.4 203.44, 77.6 203.11 C74.81 202.79, 72.01 202.3, 69.25 201.65 C66.49 201, 63.75 200.19, 61.06 199.22 C58.37 198.25, 55.71 197.13, 53.11 195.85 C50.51 194.58, 47.96 193.15, 45.48 191.58 C43 190.02, 40.57 188.29, 38.24 186.45 C35.9 184.6, 33.63 182.61, 31.46 180.5 C29.28 178.39, 27.19 176.14, 25.2 173.79 C23.21 171.43, 21.31 168.96, 19.53 166.38 C17.75 163.81, 16.06 161.13, 14.5 158.36 C12.94 155.59, 11.48 152.72, 10.16 149.79 C8.83 146.86, 7.62 143.83, 6.55 140.76 C5.47 137.69, 4.52 134.54, 3.7 131.35 C2.89 128.17, 2.2 124.92, 1.65 121.66 C1.1 118.4, 0.69 115.09, 0.41 111.78 C0.14 108.47, 0 105.13, 0 101.8 C0 98.48, 0.14 95.13, 0.41 91.82 C0.69 88.51, 1.1 85.2, 1.65 81.94 C2.2 78.68, 2.89 75.43, 3.7 72.25 C4.52 69.07, 5.47 65.92, 6.55 62.84 C7.62 59.77, 8.83 56.75, 10.16 53.81 C11.48 50.88, 12.94 48.01, 14.5 45.24 C16.06 42.48, 17.75 39.79, 19.53 37.22 C21.31 34.65, 23.21 32.17, 25.2 29.82 C27.19 27.47, 29.28 25.22, 31.46 23.11 C33.63 21, 35.9 19, 38.24 17.16 C40.57 15.31, 43 13.59, 45.48 12.02 C47.96 10.45, 50.51 9.02, 53.11 7.75 C55.71 6.48, 58.37 5.35, 61.06 4.38 C63.75 3.42, 66.49 2.6, 69.25 1.96 C72.01 1.31, 74.81 0.82, 77.6 0.49 C80.4 0.16, 83.22 0, 86.04 0 C88.85 0, 91.67 0.16, 94.47 0.49 C97.27 0.82, 100.06 1.31, 102.82 1.96 C105.58 2.6, 108.32 3.42, 111.01 4.38 C113.7 5.35, 116.36 6.48, 118.96 7.75 C121.56 9.02, 124.11 10.45, 126.59 12.02 C129.07 13.59, 131.5 15.31, 133.84 17.16 C136.17 19, 138.44 21, 140.62 23.11 C142.79 25.22, 144.88 27.47, 146.87 29.82 C148.86 32.17, 150.76 34.65, 152.54 37.22 C154.33 39.79, 156.01 42.48, 157.57 45.24 C159.13 48.01, 160.59 50.88, 161.91 53.81 C163.24 56.75, 164.45 59.77, 165.52 62.84 C166.6 65.92, 167.55 69.07, 168.37 72.25 C169.18 75.43, 169.87 78.68, 170.42 81.94 C170.97 85.2, 171.38 88.51, 171.66 91.82 C171.93 95.13, 172 100.14, 172.07 101.8 C172.14 103.46, 172.14 100.14, 172.07 101.8" stroke="#1e1e1e" stroke-width="4" fill="none"></path></g><g transform="translate(393.6660115674561 488.83046594054827) rotate(0 55.289939880371065 37.5)"><text x="55.289939880371094" y="0" font-family="Virgil, Segoe UI Emoji" font-size="20px" fill="#ffffff" text-anchor="middle" style="white-space: pre;" direction="ltr" dominant-baseline="text-before-edge">Spring-Boot</text><text x="55.289939880371094" y="25" font-family="Virgil, Segoe UI Emoji" font-size="20px" fill="#ffffff" text-anchor="middle" style="white-space: pre;" direction="ltr" dominant-baseline="text-before-edge">Stomp </text><text x="55.289939880371094" y="50" font-family="Virgil, Segoe UI Emoji" font-size="20px" fill="#ffffff" text-anchor="middle" style="white-space: pre;" direction="ltr" dominant-baseline="text-before-edge">Server</text></g><g stroke-linecap="round"><g transform="translate(195.1890971031713 456.9466818274377) rotate(0 89.409517108509 -0.2891586030158919)"><path d="M-0.74 0.43 C28.64 0.61, 147.63 0.74, 177.43 0.47 M1.07 -0.39 C30.7 -0.48, 150.23 -1.21, 179.56 -1.2" stroke="#f44336" stroke-width="4" fill="none"></path></g><g transform="translate(195.1890971031713 456.9466818274377) rotate(0 89.409517108509 -0.2891586030158919)"><path d="M181.02 -1.65 L166.04 3.25 L167.77 -9.39 L178.05 -2.62" stroke="none" stroke-width="0" fill="#f44336" fill-rule="evenodd"></path><path d="M180.1 -2.59 C175.2 0.65, 167.7 3.76, 164.78 4.05 M179.11 -0.89 C177.23 -0.2, 174.38 1.32, 166.16 4.48 M166.9 4.95 C164.93 0.62, 165.89 -3.48, 165.92 -7.88 M165.76 5.19 C165.5 1.05, 166.61 -3.07, 165.77 -7.33 M166.7 -7.37 C170.58 -5.51, 175.94 -3.45, 178.55 -0.25 M165.37 -7.43 C169.44 -5.53, 171.9 -4.7, 179.68 -1.86 M179.56 -1.2 C179.56 -1.2, 179.56 -1.2, 179.56 -1.2 M179.56 -1.2 C179.56 -1.2, 179.56 -1.2, 179.56 -1.2" stroke="#f44336" stroke-width="4" fill="none"></path></g></g><mask></mask><g stroke-linecap="round" transform="translate(10 388.4054412841797) rotate(0 93.69365692138672 120.27023315429688)"><path d="M187.39 120.27 C187.39 123.97, 187.25 127.68, 186.99 131.37 C186.72 135.05, 186.32 138.73, 185.79 142.37 C185.26 146.01, 184.6 149.63, 183.81 153.18 C183.02 156.74, 182.1 160.27, 181.06 163.72 C180.02 167.17, 178.85 170.57, 177.56 173.88 C176.28 177.19, 174.87 180.44, 173.35 183.58 C171.84 186.73, 170.2 189.8, 168.46 192.75 C166.73 195.7, 164.88 198.56, 162.93 201.3 C160.99 204.03, 158.94 206.66, 156.81 209.15 C154.69 211.64, 152.46 214.02, 150.16 216.25 C147.86 218.48, 145.47 220.58, 143.02 222.53 C140.57 224.47, 138.04 226.28, 135.46 227.93 C132.88 229.58, 130.23 231.08, 127.54 232.42 C124.85 233.76, 122.11 234.94, 119.33 235.95 C116.56 236.96, 113.74 237.81, 110.91 238.49 C108.08 239.17, 105.21 239.69, 102.34 240.03 C99.47 240.37, 96.58 240.54, 93.69 240.54 C90.81 240.54, 87.92 240.37, 85.05 240.03 C82.18 239.69, 79.31 239.17, 76.48 238.49 C73.64 237.81, 70.82 236.96, 68.05 235.95 C65.28 234.94, 62.53 233.76, 59.85 232.42 C57.16 231.08, 54.51 229.58, 51.93 227.93 C49.35 226.28, 46.82 224.47, 44.37 222.53 C41.92 220.58, 39.53 218.48, 37.23 216.25 C34.93 214.02, 32.7 211.64, 30.57 209.15 C28.44 206.66, 26.39 204.03, 24.45 201.3 C22.51 198.56, 20.66 195.7, 18.92 192.75 C17.19 189.8, 15.55 186.73, 14.03 183.58 C12.52 180.44, 11.11 177.19, 9.82 173.88 C8.54 170.57, 7.37 167.17, 6.33 163.72 C5.29 160.27, 4.37 156.74, 3.58 153.18 C2.79 149.63, 2.12 146.01, 1.6 142.37 C1.07 138.73, 0.67 135.05, 0.4 131.37 C0.13 127.68, 0 123.97, 0 120.27 C0 116.57, 0.13 112.86, 0.4 109.17 C0.67 105.49, 1.07 101.81, 1.6 98.17 C2.12 94.53, 2.79 90.91, 3.58 87.36 C4.37 83.8, 5.29 80.27, 6.33 76.82 C7.37 73.37, 8.54 69.97, 9.82 66.66 C11.11 63.35, 12.52 60.1, 14.03 56.96 C15.55 53.81, 17.19 50.74, 18.92 47.79 C20.66 44.84, 22.51 41.98, 24.45 39.24 C26.39 36.51, 28.44 33.88, 30.57 31.39 C32.7 28.9, 34.93 26.52, 37.23 24.29 C39.53 22.06, 41.92 19.96, 44.37 18.01 C46.82 16.07, 49.35 14.26, 51.93 12.61 C54.51 10.96, 57.16 9.46, 59.85 8.12 C62.53 6.79, 65.28 5.6, 68.05 4.59 C70.82 3.58, 73.64 2.73, 76.48 2.05 C79.31 1.37, 82.18 0.85, 85.05 0.51 C87.92 0.17, 90.81 0, 93.69 0 C96.58 0, 99.47 0.17, 102.34 0.51 C105.21 0.85, 108.08 1.37, 110.91 2.05 C113.74 2.73, 116.56 3.58, 119.33 4.59 C122.11 5.6, 124.85 6.79, 127.54 8.12 C130.23 9.46, 132.88 10.96, 135.46 12.61 C138.04 14.26, 140.57 16.07, 143.02 18.01 C145.47 19.96, 147.86 22.06, 150.16 24.29 C152.46 26.52, 154.69 28.9, 156.81 31.39 C158.94 33.88, 160.99 36.51, 162.93 39.24 C164.88 41.98, 166.73 44.84, 168.46 47.79 C170.2 50.74, 171.84 53.81, 173.35 56.96 C174.87 60.1, 176.28 63.35, 177.56 66.66 C178.85 69.97, 180.02 73.37, 181.06 76.82 C182.1 80.27, 183.02 83.8, 183.81 87.36 C184.6 90.91, 185.26 94.53, 185.79 98.17 C186.32 101.81, 186.72 105.49, 186.99 109.17 C187.25 112.86, 187.32 118.42, 187.39 120.27 C187.45 122.12, 187.45 118.42, 187.39 120.27" stroke="none" stroke-width="0" fill="#f44336"></path><path d="M187.39 120.27 C187.39 123.97, 187.25 127.68, 186.99 131.37 C186.72 135.05, 186.32 138.73, 185.79 142.37 C185.26 146.01, 184.6 149.63, 183.81 153.18 C183.02 156.74, 182.1 160.27, 181.06 163.72 C180.02 167.17, 178.85 170.57, 177.56 173.88 C176.28 177.19, 174.87 180.44, 173.35 183.58 C171.84 186.73, 170.2 189.8, 168.46 192.75 C166.73 195.7, 164.88 198.56, 162.93 201.3 C160.99 204.03, 158.94 206.66, 156.81 209.15 C154.69 211.64, 152.46 214.02, 150.16 216.25 C147.86 218.48, 145.47 220.58, 143.02 222.53 C140.57 224.47, 138.04 226.28, 135.46 227.93 C132.88 229.58, 130.23 231.08, 127.54 232.42 C124.85 233.76, 122.11 234.94, 119.33 235.95 C116.56 236.96, 113.74 237.81, 110.91 238.49 C108.08 239.17, 105.21 239.69, 102.34 240.03 C99.47 240.37, 96.58 240.54, 93.69 240.54 C90.81 240.54, 87.92 240.37, 85.05 240.03 C82.18 239.69, 79.31 239.17, 76.48 238.49 C73.64 237.81, 70.82 236.96, 68.05 235.95 C65.28 234.94, 62.53 233.76, 59.85 232.42 C57.16 231.08, 54.51 229.58, 51.93 227.93 C49.35 226.28, 46.82 224.47, 44.37 222.53 C41.92 220.58, 39.53 218.48, 37.23 216.25 C34.93 214.02, 32.7 211.64, 30.57 209.15 C28.44 206.66, 26.39 204.03, 24.45 201.3 C22.51 198.56, 20.66 195.7, 18.92 192.75 C17.19 189.8, 15.55 186.73, 14.03 183.58 C12.52 180.44, 11.11 177.19, 9.82 173.88 C8.54 170.57, 7.37 167.17, 6.33 163.72 C5.29 160.27, 4.37 156.74, 3.58 153.18 C2.79 149.63, 2.12 146.01, 1.6 142.37 C1.07 138.73, 0.67 135.05, 0.4 131.37 C0.13 127.68, 0 123.97, 0 120.27 C0 116.57, 0.13 112.86, 0.4 109.17 C0.67 105.49, 1.07 101.81, 1.6 98.17 C2.12 94.53, 2.79 90.91, 3.58 87.36 C4.37 83.8, 5.29 80.27, 6.33 76.82 C7.37 73.37, 8.54 69.97, 9.82 66.66 C11.11 63.35, 12.52 60.1, 14.03 56.96 C15.55 53.81, 17.19 50.74, 18.92 47.79 C20.66 44.84, 22.51 41.98, 24.45 39.24 C26.39 36.51, 28.44 33.88, 30.57 31.39 C32.7 28.9, 34.93 26.52, 37.23 24.29 C39.53 22.06, 41.92 19.96, 44.37 18.01 C46.82 16.07, 49.35 14.26, 51.93 12.61 C54.51 10.96, 57.16 9.46, 59.85 8.12 C62.53 6.79, 65.28 5.6, 68.05 4.59 C70.82 3.58, 73.64 2.73, 76.48 2.05 C79.31 1.37, 82.18 0.85, 85.05 0.51 C87.92 0.17, 90.81 0, 93.69 0 C96.58 0, 99.47 0.17, 102.34 0.51 C105.21 0.85, 108.08 1.37, 110.91 2.05 C113.74 2.73, 116.56 3.58, 119.33 4.59 C122.11 5.6, 124.85 6.79, 127.54 8.12 C130.23 9.46, 132.88 10.96, 135.46 12.61 C138.04 14.26, 140.57 16.07, 143.02 18.01 C145.47 19.96, 147.86 22.06, 150.16 24.29 C152.46 26.52, 154.69 28.9, 156.81 31.39 C158.94 33.88, 160.99 36.51, 162.93 39.24 C164.88 41.98, 166.73 44.84, 168.46 47.79 C170.2 50.74, 171.84 53.81, 173.35 56.96 C174.87 60.1, 176.28 63.35, 177.56 66.66 C178.85 69.97, 180.02 73.37, 181.06 76.82 C182.1 80.27, 183.02 83.8, 183.81 87.36 C184.6 90.91, 185.26 94.53, 185.79 98.17 C186.32 101.81, 186.72 105.49, 186.99 109.17 C187.25 112.86, 187.32 118.42, 187.39 120.27 C187.45 122.12, 187.45 118.42, 187.39 120.27" stroke="#1e1e1e" stroke-width="4" fill="none"></path></g><g transform="translate(62.922270632619984 471.13177700018605) rotate(0 41.01996612548828 37.5)"><text x="41.01996612548828" y="0" font-family="Virgil, Segoe UI Emoji" font-size="20px" fill="#ffffff" text-anchor="middle" style="white-space: pre;" direction="ltr" dominant-baseline="text-before-edge">Angular </text><text x="41.01996612548828" y="25" font-family="Virgil, Segoe UI Emoji" font-size="20px" fill="#ffffff" text-anchor="middle" style="white-space: pre;" direction="ltr" dominant-baseline="text-before-edge">Sock.Js </text><text x="41.01996612548828" y="50" font-family="Virgil, Segoe UI Emoji" font-size="20px" fill="#ffffff" text-anchor="middle" style="white-space: pre;" direction="ltr" dominant-baseline="text-before-edge">Client</text></g><g stroke-linecap="round" transform="translate(147.44129943847656 627.2163238525391) rotate(0 132.4323806762695 24.5)"><path d="M0 0 L264.86 0 L264.86 49 L0 49" stroke="none" stroke-width="0" fill="#ced4da"></path><path d="M0 0 C85.54 0, 171.09 0, 264.86 0 M0 0 C55.03 0, 110.07 0, 264.86 0 M264.86 0 C264.86 11.59, 264.86 23.17, 264.86 49 M264.86 0 C264.86 18.7, 264.86 37.39, 264.86 49 M264.86 49 C188.91 49, 112.95 49, 0 49 M264.86 49 C193.51 49, 122.15 49, 0 49 M0 49 C0 33.85, 0 18.7, 0 0 M0 49 C0 37.09, 0 25.18, 0 0" stroke="#ffffff" stroke-width="1" fill="none"></path></g><g transform="translate(176.74868011474607 632.516323852539) rotate(0 103.12500000000001 19.19999999999999)"><text x="103.125" y="0" font-family="Cascadia, Segoe UI Emoji" font-size="16px" fill="#343a40" text-anchor="middle" style="white-space: pre;" direction="ltr" dominant-baseline="text-before-edge">Stomp Endpoint</text><text x="103.125" y="19.2" font-family="Cascadia, Segoe UI Emoji" font-size="16px" fill="#343a40" text-anchor="middle" style="white-space: pre;" direction="ltr" dominant-baseline="text-before-edge">/queue/private-channel</text></g><g stroke-linecap="round" transform="translate(161.96398162841797 356.52711486816406) rotate(0 132.4323806762695 24.5)"><path d="M0 0 L264.86 0 L264.86 49 L0 49" stroke="none" stroke-width="0" fill="#ced4da"></path><path d="M0 0 C102.73 0, 205.46 0, 264.86 0 M0 0 C63.79 0, 127.57 0, 264.86 0 M264.86 0 C264.86 10.2, 264.86 20.39, 264.86 49 M264.86 0 C264.86 17.38, 264.86 34.77, 264.86 49 M264.86 49 C172.16 49, 79.46 49, 0 49 M264.86 49 C209.5 49, 154.13 49, 0 49 M0 49 C0 35.71, 0 22.42, 0 0 M0 49 C0 39.13, 0 29.26, 0 0" stroke="#ffffff" stroke-width="1" fill="none"></path></g><g transform="translate(195.95886230468747 361.8271148681641) rotate(0 98.43750000000001 19.19999999999999)"><text x="98.4375" y="0" font-family="Cascadia, Segoe UI Emoji" font-size="16px" fill="#343a40" text-anchor="middle" style="white-space: pre;" direction="ltr" dominant-baseline="text-before-edge">Stomp Endpoint</text><text x="98.4375" y="19.2" font-family="Cascadia, Segoe UI Emoji" font-size="16px" fill="#343a40" text-anchor="middle" style="white-space: pre;" direction="ltr" dominant-baseline="text-before-edge">/topic/public-channel</text></g><g stroke-linecap="round"><g transform="translate(359.153076171875 562.3513946533203) rotate(0 -83.33334350585938 -0.000030517578125)"><path d="M0 0 C-38.65 0, -77.3 0, -166.67 0 M0 0 C-48.69 0, -97.37 0, -166.67 0" stroke="#2f9e44" stroke-width="4" fill="none"></path></g><g transform="translate(359.153076171875 562.3513946533203) rotate(0 -83.33334350585938 -0.000030517578125)"><path d="M-166.67 0 L-153.07 -6.34 L-153.07 6.34 L-166.67 0" stroke="none" stroke-width="0" fill="#2f9e44" fill-rule="evenodd"></path><path d="M-166.67 0 C-163.51 -1.47, -160.36 -2.94, -153.07 -6.34 M-166.67 0 C-162.7 -1.85, -158.72 -3.7, -153.07 -6.34 M-153.07 -6.34 C-153.07 -2.91, -153.07 0.52, -153.07 6.34 M-153.07 -6.34 C-153.07 -2.27, -153.07 1.8, -153.07 6.34 M-153.07 6.34 C-156.19 4.89, -159.31 3.43, -166.67 0 M-153.07 6.34 C-157.05 4.48, -161.03 2.63, -166.67 0 M-166.67 0 C-166.67 0, -166.67 0, -166.67 0 M-166.67 0 C-166.67 0, -166.67 0, -166.67 0" stroke="#2f9e44" stroke-width="4" fill="none"></path></g></g><mask></mask><g transform="translate(833.3698120117188 244.7207489013672) rotate(0 89.0625 9.599999999999994)"><text x="89.0625" y="0" font-family="Cascadia, Segoe UI Emoji" font-size="16px" fill="#ffffff" text-anchor="middle" style="white-space: pre;" direction="ltr" dominant-baseline="text-before-edge">kafkaTextInputTopic</text></g><g transform="translate(839.3579711914062 742.2883453369141) rotate(0 93.75 9.600000000000023)"><text x="93.75" y="0" font-family="Cascadia, Segoe UI Emoji" font-size="16px" fill="#ffffff" text-anchor="middle" style="white-space: pre;" direction="ltr" dominant-baseline="text-before-edge">kafkaTextOutputTopic</text></g><g stroke-linecap="round" transform="translate(739.333251953125 435.32423400878906) rotate(0 193.24331665039062 77.02703857421875)"><path d="M386.49 77.03 C386.49 79.04, 386.29 81.06, 385.89 83.07 C385.49 85.08, 384.9 87.09, 384.11 89.08 C383.32 91.07, 382.33 93.05, 381.15 95.01 C379.97 96.97, 378.59 98.91, 377.03 100.83 C375.47 102.75, 373.71 104.64, 371.78 106.5 C369.84 108.37, 367.72 110.2, 365.42 112 C363.13 113.79, 360.65 115.56, 358.01 117.27 C355.37 118.99, 352.55 120.67, 349.58 122.3 C346.61 123.93, 343.47 125.52, 340.19 127.05 C336.9 128.58, 333.46 130.07, 329.89 131.49 C326.31 132.92, 322.59 134.29, 318.74 135.6 C314.9 136.91, 310.92 138.16, 306.83 139.34 C302.74 140.53, 298.52 141.65, 294.21 142.7 C289.9 143.76, 285.48 144.74, 280.97 145.66 C276.47 146.57, 271.86 147.42, 267.19 148.19 C262.53 148.96, 257.77 149.66, 252.96 150.28 C248.15 150.91, 243.27 151.46, 238.36 151.93 C233.44 152.4, 228.46 152.79, 223.47 153.11 C218.48 153.42, 213.44 153.66, 208.41 153.82 C203.37 153.97, 198.3 154.05, 193.24 154.05 C188.19 154.05, 183.12 153.97, 178.08 153.82 C173.04 153.66, 168.01 153.42, 163.01 153.11 C158.02 152.79, 153.05 152.4, 148.13 151.93 C143.22 151.46, 138.33 150.91, 133.53 150.28 C128.72 149.66, 123.96 148.96, 119.29 148.19 C114.62 147.42, 110.02 146.57, 105.51 145.66 C101.01 144.74, 96.58 143.76, 92.27 142.7 C87.96 141.65, 83.75 140.53, 79.66 139.34 C75.57 138.16, 71.58 136.91, 67.74 135.6 C63.9 134.29, 60.17 132.92, 56.6 131.49 C53.03 130.07, 49.58 128.58, 46.3 127.05 C43.02 125.52, 39.88 123.93, 36.91 122.3 C33.94 120.67, 31.12 118.99, 28.48 117.27 C25.84 115.56, 23.36 113.79, 21.06 112 C18.77 110.2, 16.64 108.37, 14.71 106.5 C12.78 104.64, 11.02 102.75, 9.46 100.83 C7.9 98.91, 6.52 96.97, 5.34 95.01 C4.16 93.05, 3.17 91.07, 2.38 89.08 C1.59 87.09, 0.99 85.08, 0.6 83.07 C0.2 81.06, 0 79.04, 0 77.03 C0 75.01, 0.2 72.99, 0.6 70.98 C0.99 68.98, 1.59 66.97, 2.38 64.98 C3.17 62.99, 4.16 61, 5.34 59.05 C6.52 57.09, 7.9 55.14, 9.46 53.22 C11.02 51.31, 12.78 49.41, 14.71 47.55 C16.64 45.69, 18.77 43.85, 21.06 42.06 C23.36 40.26, 25.84 38.5, 28.48 36.78 C31.12 35.06, 33.94 33.38, 36.91 31.75 C39.88 30.12, 43.02 28.53, 46.3 27 C49.58 25.47, 53.03 23.99, 56.6 22.56 C60.17 21.14, 63.9 19.76, 67.74 18.46 C71.58 17.15, 75.57 15.89, 79.66 14.71 C83.75 13.53, 87.96 12.4, 92.27 11.35 C96.58 10.3, 101.01 9.31, 105.51 8.4 C110.02 7.48, 114.62 6.63, 119.29 5.86 C123.96 5.09, 128.72 4.39, 133.53 3.77 C138.33 3.15, 143.22 2.6, 148.13 2.13 C153.05 1.66, 158.02 1.26, 163.01 0.95 C168.01 0.63, 173.04 0.4, 178.08 0.24 C183.12 0.08, 188.19 0, 193.24 0 C198.3 0, 203.37 0.08, 208.41 0.24 C213.44 0.4, 218.48 0.63, 223.47 0.95 C228.46 1.26, 233.44 1.66, 238.36 2.13 C243.27 2.6, 248.15 3.15, 252.96 3.77 C257.77 4.39, 262.53 5.09, 267.19 5.86 C271.86 6.63, 276.47 7.48, 280.97 8.4 C285.48 9.31, 289.9 10.3, 294.21 11.35 C298.52 12.4, 302.74 13.53, 306.83 14.71 C310.92 15.89, 314.9 17.15, 318.74 18.46 C322.59 19.76, 326.31 21.14, 329.89 22.56 C333.46 23.99, 336.9 25.47, 340.19 27 C343.47 28.53, 346.61 30.12, 349.58 31.75 C352.55 33.38, 355.37 35.06, 358.01 36.78 C360.65 38.5, 363.13 40.26, 365.42 42.06 C367.72 43.85, 369.84 45.69, 371.78 47.55 C373.71 49.41, 375.47 51.31, 377.03 53.22 C378.59 55.14, 379.97 57.09, 381.15 59.05 C382.33 61, 383.32 62.99, 384.11 64.98 C384.9 66.97, 385.49 68.98, 385.89 70.98 C386.29 72.99, 386.49 75.01, 386.49 77.03" stroke="none" stroke-width="0" fill="#ced4da"></path><path d="M386.49 77.03 C386.49 79.04, 386.29 81.06, 385.89 83.07 C385.49 85.08, 384.9 87.09, 384.11 89.08 C383.32 91.07, 382.33 93.05, 381.15 95.01 C379.97 96.97, 378.59 98.91, 377.03 100.83 C375.47 102.75, 373.71 104.64, 371.78 106.5 C369.84 108.37, 367.72 110.2, 365.42 112 C363.13 113.79, 360.65 115.56, 358.01 117.27 C355.37 118.99, 352.55 120.67, 349.58 122.3 C346.61 123.93, 343.47 125.52, 340.19 127.05 C336.9 128.58, 333.46 130.07, 329.89 131.49 C326.31 132.92, 322.59 134.29, 318.74 135.6 C314.9 136.91, 310.92 138.16, 306.83 139.34 C302.74 140.53, 298.52 141.65, 294.21 142.7 C289.9 143.76, 285.48 144.74, 280.97 145.66 C276.47 146.57, 271.86 147.42, 267.19 148.19 C262.53 148.96, 257.77 149.66, 252.96 150.28 C248.15 150.91, 243.27 151.46, 238.36 151.93 C233.44 152.4, 228.46 152.79, 223.47 153.11 C218.48 153.42, 213.44 153.66, 208.41 153.82 C203.37 153.97, 198.3 154.05, 193.24 154.05 C188.19 154.05, 183.12 153.97, 178.08 153.82 C173.04 153.66, 168.01 153.42, 163.01 153.11 C158.02 152.79, 153.05 152.4, 148.13 151.93 C143.22 151.46, 138.33 150.91, 133.53 150.28 C128.72 149.66, 123.96 148.96, 119.29 148.19 C114.62 147.42, 110.02 146.57, 105.51 145.66 C101.01 144.74, 96.58 143.76, 92.27 142.7 C87.96 141.65, 83.75 140.53, 79.66 139.34 C75.57 138.16, 71.58 136.91, 67.74 135.6 C63.9 134.29, 60.17 132.92, 56.6 131.49 C53.03 130.07, 49.58 128.58, 46.3 127.05 C43.02 125.52, 39.88 123.93, 36.91 122.3 C33.94 120.67, 31.12 118.99, 28.48 117.27 C25.84 115.56, 23.36 113.79, 21.06 112 C18.77 110.2, 16.64 108.37, 14.71 106.5 C12.78 104.64, 11.02 102.75, 9.46 100.83 C7.9 98.91, 6.52 96.97, 5.34 95.01 C4.16 93.05, 3.17 91.07, 2.38 89.08 C1.59 87.09, 0.99 85.08, 0.6 83.07 C0.2 81.06, 0 79.04, 0 77.03 C0 75.01, 0.2 72.99, 0.6 70.98 C0.99 68.98, 1.59 66.97, 2.38 64.98 C3.17 62.99, 4.16 61, 5.34 59.05 C6.52 57.09, 7.9 55.14, 9.46 53.22 C11.02 51.31, 12.78 49.41, 14.71 47.55 C16.64 45.69, 18.77 43.85, 21.06 42.06 C23.36 40.26, 25.84 38.5, 28.48 36.78 C31.12 35.06, 33.94 33.38, 36.91 31.75 C39.88 30.12, 43.02 28.53, 46.3 27 C49.58 25.47, 53.03 23.99, 56.6 22.56 C60.17 21.14, 63.9 19.76, 67.74 18.46 C71.58 17.15, 75.57 15.89, 79.66 14.71 C83.75 13.53, 87.96 12.4, 92.27 11.35 C96.58 10.3, 101.01 9.31, 105.51 8.4 C110.02 7.48, 114.62 6.63, 119.29 5.86 C123.96 5.09, 128.72 4.39, 133.53 3.77 C138.33 3.15, 143.22 2.6, 148.13 2.13 C153.05 1.66, 158.02 1.26, 163.01 0.95 C168.01 0.63, 173.04 0.4, 178.08 0.24 C183.12 0.08, 188.19 0, 193.24 0 C198.3 0, 203.37 0.08, 208.41 0.24 C213.44 0.4, 218.48 0.63, 223.47 0.95 C228.46 1.26, 233.44 1.66, 238.36 2.13 C243.27 2.6, 248.15 3.15, 252.96 3.77 C257.77 4.39, 262.53 5.09, 267.19 5.86 C271.86 6.63, 276.47 7.48, 280.97 8.4 C285.48 9.31, 289.9 10.3, 294.21 11.35 C298.52 12.4, 302.74 13.53, 306.83 14.71 C310.92 15.89, 314.9 17.15, 318.74 18.46 C322.59 19.76, 326.31 21.14, 329.89 22.56 C333.46 23.99, 336.9 25.47, 340.19 27 C343.47 28.53, 346.61 30.12, 349.58 31.75 C352.55 33.38, 355.37 35.06, 358.01 36.78 C360.65 38.5, 363.13 40.26, 365.42 42.06 C367.72 43.85, 369.84 45.69, 371.78 47.55 C373.71 49.41, 375.47 51.31, 377.03 53.22 C378.59 55.14, 379.97 57.09, 381.15 59.05 C382.33 61, 383.32 62.99, 384.11 64.98 C384.9 66.97, 385.49 68.98, 385.89 70.98 C386.29 72.99, 386.49 75.01, 386.49 77.03" stroke="#343a40" stroke-width="2" fill="none"></path></g><g transform="translate(801.1829089810451 502.78493127245997) rotate(0 131.25 9.600000000000023)"><text x="131.25" y="0" font-family="Cascadia, Segoe UI Emoji" font-size="16px" fill="#343a40" text-anchor="middle" style="white-space: pre;" direction="ltr" dominant-baseline="text-before-edge">KafkaTemplate&lt;String,Stirng&gt;</text></g><g transform="translate(525.1355291211426 684.508957170499) rotate(31.516687855136578 140.625 19.19999999999999)"><text x="140.625" y="0" font-family="Cascadia, Segoe UI Emoji" font-size="16px" fill="#343a40" text-anchor="middle" style="white-space: pre;" direction="ltr" dominant-baseline="text-before-edge">@KafkaListener(k-stream topic)</text><text x="140.625" y="19.2" font-family="Cascadia, Segoe UI Emoji" font-size="16px" fill="#343a40" text-anchor="middle" style="white-space: pre;" direction="ltr" dominant-baseline="text-before-edge"></text></g><g stroke-linecap="round"><g transform="translate(521.3589796281526 458.8662059392924) rotate(0 143.22135857459563 -91.38102343587437)"><path d="M0 0 C91.57 -58.42, 183.13 -116.85, 286.44 -182.76 M0 0 C78.5 -50.08, 156.99 -100.17, 286.44 -182.76" stroke="#f44336" stroke-width="4" fill="none"></path></g><g transform="translate(521.3589796281526 458.8662059392924) rotate(0 143.22135857459563 -91.38102343587437)"><path d="M286.44 -182.76 L278.39 -170.11 L271.57 -180.79 L286.44 -182.76" stroke="none" stroke-width="0" fill="#f44336" fill-rule="evenodd"></path><path d="M286.44 -182.76 C283.87 -178.72, 281.3 -174.67, 278.39 -170.11 M286.44 -182.76 C284.24 -179.29, 282.03 -175.83, 278.39 -170.11 M278.39 -170.11 C276.56 -172.97, 274.74 -175.84, 271.57 -180.79 M278.39 -170.11 C276.91 -172.43, 275.43 -174.75, 271.57 -180.79 M271.57 -180.79 C276.32 -181.42, 281.07 -182.05, 286.44 -182.76 M271.57 -180.79 C276.63 -181.46, 281.69 -182.13, 286.44 -182.76 M286.44 -182.76 C286.44 -182.76, 286.44 -182.76, 286.44 -182.76 M286.44 -182.76 C286.44 -182.76, 286.44 -182.76, 286.44 -182.76" stroke="#f44336" stroke-width="4" fill="none"></path></g></g><mask></mask><g stroke-linecap="round"><g transform="translate(926.5082333825458 348.83778381347656) rotate(0 0.6014616144921092 42.755465630989534)"><path d="M0 0 C0.38 27.21, 0.77 54.43, 1.2 85.51 M0 0 C0.41 29.33, 0.83 58.65, 1.2 85.51" stroke="#343a40" stroke-width="4" fill="none"></path></g><g transform="translate(926.5082333825458 348.83778381347656) rotate(0 0.6014616144921092 42.755465630989534)"><path d="M1.2 85.51 L-5.33 72.01 L7.35 71.83 L1.2 85.51" stroke="none" stroke-width="0" fill="#343a40" fill-rule="evenodd"></path><path d="M1.2 85.51 C-0.88 81.21, -2.95 76.92, -5.33 72.01 M1.2 85.51 C-1.04 80.88, -3.28 76.25, -5.33 72.01 M-5.33 72.01 C-0.33 71.94, 4.67 71.87, 7.35 71.83 M-5.33 72.01 C-1.63 71.95, 2.07 71.9, 7.35 71.83 M7.35 71.83 C5.38 76.21, 3.41 80.59, 1.2 85.51 M7.35 71.83 C5.6 75.72, 3.85 79.61, 1.2 85.51 M1.2 85.51 C1.2 85.51, 1.2 85.51, 1.2 85.51 M1.2 85.51 C1.2 85.51, 1.2 85.51, 1.2 85.51" stroke="#343a40" stroke-width="4" fill="none"></path></g></g><mask></mask><g stroke-linecap="round"><g transform="translate(930.3484197679043 592.4929419438474) rotate(0 0.8764969039845028 35.58977670319712)"><path d="M0 0 C0.51 20.74, 1.02 41.48, 1.75 71.18 M0 0 C0.56 22.6, 1.11 45.2, 1.75 71.18" stroke="#343a40" stroke-width="4" fill="none"></path></g><g transform="translate(930.3484197679043 592.4929419438474) rotate(0 0.8764969039845028 35.58977670319712)"><path d="M1.75 71.18 L-4.92 57.75 L7.76 57.43 L1.75 71.18" stroke="none" stroke-width="0" fill="#343a40" fill-rule="evenodd"></path><path d="M1.75 71.18 C-0.19 67.27, -2.13 63.35, -4.92 57.75 M1.75 71.18 C-0.37 66.91, -2.48 62.65, -4.92 57.75 M-4.92 57.75 C-1.24 57.65, 2.44 57.56, 7.76 57.43 M-4.92 57.75 C-2.38 57.68, 0.15 57.62, 7.76 57.43 M7.76 57.43 C6.4 60.53, 5.05 63.63, 1.75 71.18 M7.76 57.43 C5.83 61.85, 3.89 66.27, 1.75 71.18 M1.75 71.18 C1.75 71.18, 1.75 71.18, 1.75 71.18 M1.75 71.18 C1.75 71.18, 1.75 71.18, 1.75 71.18" stroke="#343a40" stroke-width="4" fill="none"></path></g></g><mask></mask><g stroke-linecap="round"><g transform="translate(824.0178833007812 743.4324493408203) rotate(0 -146.9657753391112 -83.02352574261295)"><path d="M-0.51 -1.39 C-63.49 -41.37, -133.32 -73.64, -293.96 -165.15 M0.05 0.95 C-97.02 -54.35, -198.18 -109.33, -293.98 -167" stroke="#2f9e44" stroke-width="4" fill="none"></path></g><g transform="translate(824.0178833007812 743.4324493408203) rotate(0 -146.9657753391112 -83.02352574261295)"><path d="M-290.2 -169.35 L-278.74 -161.92 L-288.85 -158.03 L-291.47 -165.03" stroke="none" stroke-width="0" fill="#2f9e44" fill-rule="evenodd"></path><path d="M-294.55 -168.55 C-287.81 -169.49, -289.33 -163.71, -279.34 -163.9 M-293.93 -165.93 C-288.3 -167.77, -285.4 -165.8, -279.37 -165.96 M-277.95 -164.43 C-280.13 -162.46, -284.1 -155.16, -284.24 -155.58 M-280.12 -166.4 C-280.83 -162.09, -281.42 -161.05, -284.82 -154.68 M-287.27 -157.39 C-287.84 -156.57, -291.77 -160.11, -295.44 -167.44 M-284.03 -154.14 C-287.47 -157.14, -288.91 -161.38, -295.42 -165.97 M-293.98 -167 C-293.98 -167, -293.98 -167, -293.98 -167 M-293.98 -167 C-293.98 -167, -293.98 -167, -293.98 -167" stroke="#2f9e44" stroke-width="4" fill="none"></path></g></g><mask></mask><g stroke-linecap="round" transform="translate(1333.0269165039062 373.16221618652344) rotate(0 113.51348876953125 113.51345825195312)"><path d="M111.69 1.21 C136.66 26.01, 162.64 55.24, 229.88 116.22 M226.85 115.91 C206.16 136.9, 179.36 164.13, 110.53 226.79 M113.8 227.99 C89 198.37, 60.13 170.12, -1.01 117.69 M0.96 112.85 C31.22 77.05, 67.42 45.84, 115.21 3.85" stroke="#868e96" stroke-width="4.5" fill="none" stroke-dasharray="1.5 10"></path></g><g transform="translate(1395.2211608886719 448.5189453125) rotate(0 51.5625 38.39999999999998)"><text x="51.5625" y="0" font-family="Cascadia, Segoe UI Emoji" font-size="16px" fill="#343a40" text-anchor="middle" style="white-space: pre;" direction="ltr" dominant-baseline="text-before-edge"> Some Other</text><text x="51.5625" y="19.2" font-family="Cascadia, Segoe UI Emoji" font-size="16px" fill="#343a40" text-anchor="middle" style="white-space: pre;" direction="ltr" dominant-baseline="text-before-edge">Consumer </text><text x="51.5625" y="38.4" font-family="Cascadia, Segoe UI Emoji" font-size="16px" fill="#343a40" text-anchor="middle" style="white-space: pre;" direction="ltr" dominant-baseline="text-before-edge">(App) </text><text x="51.5625" y="57.599999999999994" font-family="Cascadia, Segoe UI Emoji" font-size="16px" fill="#343a40" text-anchor="middle" style="white-space: pre;" direction="ltr" dominant-baseline="text-before-edge">listening </text></g><g stroke-linecap="round"><g transform="translate(1036.479399238976 731.0494672438866) rotate(0 145.97906464957748 -118.71447577215991)"><path d="M-0.61 0.38 C76.98 -60.2, 153.44 -124.55, 291.59 -237.81 M0.36 -0.37 C108.82 -85.47, 215.56 -173.2, 292.57 -236.6" stroke="#2f9e44" stroke-width="4" fill="none"></path></g><g transform="translate(1036.479399238976 731.0494672438866) rotate(0 145.97906464957748 -118.71447577215991)"><path d="M293.32 -237.28 L287.99 -221.25 L279.65 -231.84 L292.03 -234.62" stroke="none" stroke-width="0" fill="#2f9e44" fill-rule="evenodd"></path><path d="M291.81 -236.13 C291.75 -231.99, 288.79 -230.54, 284.78 -224.54 M293.01 -237.06 C290.67 -231.19, 287.51 -227.37, 285.98 -223.04 M285.18 -222.09 C283.1 -225.83, 280.8 -229.86, 278.74 -233.9 M285.95 -223.05 C284.93 -225.12, 282.33 -227.18, 278.03 -232.94 M278.86 -234.1 C282.34 -235.23, 286.15 -234.79, 292.99 -237.23 M278.73 -232.43 C281.85 -233.32, 285.29 -235.32, 293.3 -236.23 M292.57 -236.6 C292.57 -236.6, 292.57 -236.6, 292.57 -236.6 M292.57 -236.6 C292.57 -236.6, 292.57 -236.6, 292.57 -236.6" stroke="#2f9e44" stroke-width="4" fill="none"></path></g></g><mask></mask><g stroke-linecap="round" transform="translate(178.07199096679688 145.23431396484375) rotate(0 116.66665649414062 92.79278564453125)"><path d="M117 0 C144.25 21.78, 171.5 43.57, 233.33 93 M233.33 93 C207.17 113.82, 181 134.65, 117 185.59 M117 185.59 C74.65 152.08, 32.31 118.57, 0 93 M0 93 C45.07 57.17, 90.15 21.35, 117 0" stroke="#868e96" stroke-width="4.5" fill="none" stroke-dasharray="1.5 10"></path></g><g transform="translate(238.4668731689453 210.02703857421875) rotate(0 49.740234375 23.516463068181793)"><text x="49.740234375" y="0" font-family="Cascadia, Segoe UI Emoji" font-size="13.064701704545449px" fill="#343a40" text-anchor="middle" style="white-space: pre;" direction="ltr" dominant-baseline="text-before-edge">Client-Server</text><text x="49.740234375" y="15.677642045454538" font-family="Cascadia, Segoe UI Emoji" font-size="13.064701704545449px" fill="#343a40" text-anchor="middle" style="white-space: pre;" direction="ltr" dominant-baseline="text-before-edge"> (App)</text><text x="49.740234375" y="31.355284090909077" font-family="Cascadia, Segoe UI Emoji" font-size="13.064701704545449px" fill="#343a40" text-anchor="middle" style="white-space: pre;" direction="ltr" dominant-baseline="text-before-edge"> Producer</text></g><g stroke-linecap="round" transform="translate(170.8648223876953 701.9911041259766) rotate(0 118.46846771240234 106.30621337890625)"><path d="M119 0 C154.65 32.34, 190.3 64.69, 236.94 107 M236.94 107 C190.57 148.52, 144.21 190.04, 119 212.61 M119 212.61 C89.9 186.78, 60.79 160.95, 0 107 M0 107 C28.08 81.75, 56.16 56.5, 119 0" stroke="#868e96" stroke-width="4.5" fill="none" stroke-dasharray="1.5 10"></path></g><g transform="translate(222.69149001439405 776.1621856689453) rotate(0 61.4794921875 33.595190429687534)"><text x="61.4794921875" y="0" font-family="Cascadia, Segoe UI Emoji" font-size="13.997996012369812px" fill="#343a40" text-anchor="middle" style="white-space: pre;" direction="ltr" dominant-baseline="text-before-edge">Stomp Protocol </text><text x="61.4794921875" y="16.797595214843774" font-family="Cascadia, Segoe UI Emoji" font-size="13.997996012369812px" fill="#343a40" text-anchor="middle" style="white-space: pre;" direction="ltr" dominant-baseline="text-before-edge">Multiple </text><text x="61.4794921875" y="33.59519042968755" font-family="Cascadia, Segoe UI Emoji" font-size="13.997996012369812px" fill="#343a40" text-anchor="middle" style="white-space: pre;" direction="ltr" dominant-baseline="text-before-edge">channels</text><text x="61.4794921875" y="50.39278564453132" font-family="Cascadia, Segoe UI Emoji" font-size="13.997996012369812px" fill="#343a40" text-anchor="middle" style="white-space: pre;" direction="ltr" dominant-baseline="text-before-edge">over Websocket</text></g><g transform="translate(503.5162353515625 328.92787170410156) rotate(326.11012556066663 145.3125 9.599999999999994)"><text x="145.3125" y="0" font-family="Cascadia, Segoe UI Emoji" font-size="16px" fill="#1e1e1e" text-anchor="middle" style="white-space: pre;" direction="ltr" dominant-baseline="text-before-edge">@MessageMapping(Stomp Registry)</text></g></svg>